G04 Layer: TopLayer*
G04 EasyEDA v6.1.30, Wed, 24 Apr 2019 12:06:30 GMT*
G04 1882c7138d5742058a90b0890f8f2482,60359e8c93da465f92779765accd6680,10*
G04 Gerber Generator version 0.2*
G04 Scale: 100 percent, Rotated: No, Reflected: No *
G04 Dimensions in millimeters *
G04 leading zeros omitted , absolute positions ,3 integer and 3 decimal *
%FSLAX33Y33*%
%MOMM*%
G90*
G71D02*

%ADD11C,0.203200*%
%ADD12C,0.381000*%
%ADD13C,0.609600*%
%ADD14C,1.499997*%
%ADD15C,1.399997*%
%ADD16C,1.574800*%
%ADD17R,1.574800X1.574800*%
%ADD18C,4.999990*%
%ADD19C,2.999994*%
%ADD20C,1.899996*%

%LPD*%
G54D11*
G01X27696Y20157D02*
G01X28620Y20157D01*
G01X29664Y19113D01*
G01X29664Y18094D01*
G01X30591Y17167D01*
G01X30591Y16248D01*
G01X29923Y15580D01*
G01X26898Y15580D01*
G01X23700Y12382D01*
G01X23700Y10899D01*
G01X11280Y8059D02*
G01X12357Y6982D01*
G01X14465Y6982D01*
G01X15420Y7937D01*
G01X15420Y8280D01*
G01X16746Y9603D01*
G01X18608Y9603D01*
G01X19517Y10513D01*
G01X19517Y11015D01*
G01X20459Y11958D01*
G01X21953Y11958D01*
G01X25003Y15011D01*
G01X25003Y16192D01*
G01X27510Y18699D01*
G01X28491Y18699D01*
G01X19601Y28897D02*
G01X18143Y27442D01*
G01X17894Y27442D01*
G01X16817Y26367D01*
G01X16817Y25105D01*
G01X15953Y24241D01*
G54D12*
G01X5430Y21437D02*
G01X4000Y20010D01*
G01X17536Y28897D02*
G01X17536Y29090D01*
G01X16151Y30477D01*
G01X10751Y30477D01*
G01X6309Y26035D01*
G01X6309Y22318D01*
G01X5430Y21437D01*
G01X9900Y10899D02*
G01X8171Y12628D01*
G01X8171Y18699D01*
G54D11*
G01X27099Y16799D02*
G01X27099Y16291D01*
G01X22369Y11559D01*
G01X22369Y10835D01*
G01X20779Y9245D01*
G01X17985Y9245D01*
G01X16799Y8059D01*
G01X32100Y16799D02*
G01X32100Y16741D01*
G01X30850Y15491D01*
G01X30850Y13390D01*
G01X29918Y12458D01*
G01X28239Y12458D01*
G01X27099Y13599D01*
G01X18181Y10899D02*
G01X18892Y10899D01*
G01X21592Y13599D01*
G01X22100Y13599D01*
G01X17099Y13599D02*
G01X18699Y15199D01*
G01X20500Y15199D01*
G01X22100Y16799D01*
G01X31031Y26319D02*
G01X29964Y27383D01*
G01X25585Y27383D01*
G01X24942Y26741D01*
G01X24942Y23225D01*
G01X22385Y20667D01*
G01X22385Y18191D01*
G01X23172Y17404D01*
G01X23172Y16449D01*
G01X20325Y13599D01*
G01X19601Y13599D01*
G01X23726Y28897D02*
G01X24470Y28153D01*
G01X24470Y25938D01*
G01X19151Y20617D01*
G01X17708Y20617D01*
G01X15791Y18699D01*
G01X21663Y28897D02*
G01X19601Y26835D01*
G01X19601Y26004D01*
G01X18097Y24503D01*
G01X17007Y24503D01*
G01X11203Y18699D01*
G01X10711Y18699D01*
G01X23411Y26319D02*
G01X20985Y23893D01*
G01X16972Y23893D01*
G01X11981Y18900D01*
G01X11981Y18526D01*
G01X10253Y16799D01*
G01X9601Y16799D01*
G01X10126Y9712D02*
G01X10332Y9712D01*
G01X10995Y10375D01*
G01X10995Y15694D01*
G01X12100Y16799D01*
G01X7099Y13599D02*
G01X7099Y12118D01*
G01X9504Y9712D01*
G01X10126Y9712D01*
G01X26459Y10899D02*
G01X26187Y10899D01*
G01X23700Y8412D01*
G01X23700Y7713D01*
G01X22547Y6560D01*
G01X11193Y6560D01*
G01X10126Y7627D01*
G01X10126Y9712D01*
G01X15420Y10899D02*
G01X15420Y16568D01*
G01X17061Y18209D01*
G01X17061Y18989D01*
G01X17853Y19781D01*
G01X19786Y19781D01*
G01X20871Y18699D01*
G01X25951Y26319D02*
G01X30022Y22245D01*
G01X30022Y18244D01*
G01X30952Y17315D01*
G01X30952Y16101D01*
G01X30073Y15222D01*
G01X27213Y15222D01*
G01X25374Y13385D01*
G01X25374Y11036D01*
G01X22397Y8059D01*
G01X22318Y8059D01*
G01X18331Y18699D02*
G01X18331Y16629D01*
G01X16141Y14442D01*
G01X16141Y12966D01*
G01X16588Y12517D01*
G01X16588Y10406D01*
G01X14241Y8059D01*
G01X14041Y8059D01*
G01X13411Y28897D02*
G01X13251Y28737D01*
G01X13251Y26319D01*
G54D12*
G01X8169Y18698D02*
G01X5310Y18698D01*
G01X3999Y20009D01*
G54D14*
G01X8169Y18698D03*
G01X10709Y18698D03*
G01X18329Y18698D03*
G01X20869Y18698D03*
G01X13249Y18698D03*
G01X15789Y18698D03*
G01X23409Y18698D03*
G01X25949Y18698D03*
G01X28489Y18698D03*
G01X31029Y18698D03*
G01X31029Y26318D03*
G01X28489Y26318D03*
G01X25949Y26318D03*
G01X23409Y26318D03*
G01X20869Y26318D03*
G01X18329Y26318D03*
G01X15789Y26318D03*
G01X13249Y26318D03*
G01X10709Y26318D03*
G01X8169Y26318D03*
G01X3999Y20009D03*
G01X3999Y25009D03*
G54D15*
G01X7100Y16798D03*
G01X9600Y16798D03*
G01X12100Y16798D03*
G01X7100Y13598D03*
G01X9600Y13598D03*
G01X12100Y13598D03*
G01X27100Y16798D03*
G01X29600Y16798D03*
G01X32099Y16798D03*
G01X27100Y13598D03*
G01X29600Y13598D03*
G01X32099Y13598D03*
G01X17099Y16799D03*
G01X19599Y16799D03*
G01X22099Y16799D03*
G01X17099Y13599D03*
G01X19599Y13599D03*
G01X22099Y13599D03*
G54D16*
G01X23699Y10898D03*
G54D17*
G01X29220Y10899D03*
G54D16*
G01X26459Y10898D03*
G01X20940Y10898D03*
G01X18180Y10898D03*
G01X25079Y8058D03*
G01X22319Y8058D03*
G01X19560Y8058D03*
G01X16800Y8058D03*
G01X15420Y10898D03*
G01X12660Y10898D03*
G01X9900Y10898D03*
G01X11280Y8058D03*
G01X14040Y8058D03*
G01X27840Y8058D03*
G54D18*
G01X2899Y9478D03*
G01X36219Y9478D03*
G54D19*
G01X2949Y35998D03*
G01X36250Y35998D03*
G54D13*
G01X27696Y20157D03*
G01X15953Y24241D03*
G54D20*
G01X19599Y29148D02*
G01X19599Y28648D01*
G01X21662Y29148D02*
G01X21662Y28648D01*
G01X23725Y29148D02*
G01X23725Y28648D01*
G01X25788Y29148D02*
G01X25788Y28648D01*
G01X27851Y29148D02*
G01X27851Y28648D01*
G01X17536Y29148D02*
G01X17536Y28648D01*
G01X15473Y29148D02*
G01X15473Y28648D01*
G01X13410Y29148D02*
G01X13410Y28648D01*
G01X11347Y29148D02*
G01X11347Y28648D01*
M00*
M02*
