;Layer: Drill PTH
;EasyEDA v6.1.30, Wed, 24 Apr 2019 12:06:30 GMT
;1882c7138d5742058a90b0890f8f2482,60359e8c93da465f92779765accd6680,10
;Gerber Generator version 0.2
M48
METRIC,LZ,000.000
;Holesize 1 = 0.305 METRIC
T01C0.305
;Holesize 2 = 0.600 METRIC
T02C0.600
;Holesize 3 = 0.701 METRIC
T03C0.701
;Holesize 4 = 0.800 METRIC
T04C0.800
;Holesize 5 = 1.101 METRIC
T05C1.101
;Holesize 6 = 1.501 METRIC
T06C1.501
;Holesize 7 = 2.000 METRIC
T07C2.000
;Holesize 8 = 3.251 METRIC
T08C3.251
%
G05
G90
T01
X+027696Y+020157
X+015953Y+024241
T02
X+007100Y+016798
X+009600Y+016798
X+012100Y+016798
X+007100Y+013598
X+009600Y+013598
X+012100Y+013598
X+027100Y+016798
X+029600Y+016798
X+032099Y+016798
X+027100Y+013598
X+029600Y+013598
X+032099Y+013598
X+017099Y+016799
X+019599Y+016799
X+022099Y+016799
X+017099Y+013599
X+019599Y+013599
X+022099Y+013599
T03
X+003999Y+020009
X+003999Y+025009
T04
X+008169Y+018698
X+010709Y+018698
X+018329Y+018698
X+020869Y+018698
X+013249Y+018698
X+015789Y+018698
X+023409Y+018698
X+025949Y+018698
X+028489Y+018698
X+031029Y+018698
X+031029Y+026318
X+028489Y+026318
X+025949Y+026318
X+023409Y+026318
X+020869Y+026318
X+018329Y+026318
X+015789Y+026318
X+013249Y+026318
X+010709Y+026318
X+008169Y+026318
T05
X+023699Y+010898
X+029220Y+010899
X+026459Y+010898
X+020940Y+010898
X+018180Y+010898
X+025079Y+008058
X+022319Y+008058
X+019560Y+008058
X+016800Y+008058
X+015420Y+010898
X+012660Y+010898
X+009900Y+010898
X+011280Y+008058
X+014040Y+008058
X+027840Y+008058
T06
X+019599Y+028898
X+021662Y+028898
X+023725Y+028898
X+025788Y+028898
X+027851Y+028898
X+017536Y+028898
X+015473Y+028898
X+013410Y+028898
X+011347Y+028898
T07
X+002949Y+035998
X+036250Y+035998
T08
X+002899Y+009478
X+036219Y+009478
M30
