G04 Layer: BottomSilkLayer*
G04 EasyEDA v6.1.30, Wed, 24 Apr 2019 12:06:30 GMT*
G04 1882c7138d5742058a90b0890f8f2482,60359e8c93da465f92779765accd6680,10*
G04 Gerber Generator version 0.2*
G04 Scale: 100 percent, Rotated: No, Reflected: No *
G04 Dimensions in millimeters *
G04 leading zeros omitted , absolute positions ,3 integer and 3 decimal *
%FSLAX33Y33*%
%MOMM*%
G90*
G71D02*

%ADD21C,0.299999*%
%ADD22C,0.200000*%
%ADD25C,0.250012*%

%LPD*%

%LPD*%
G36*
G01X27328Y32311D02*
G01X27281Y32314D01*
G01X27235Y32311D01*
G01X27193Y32304D01*
G01X27152Y32290D01*
G01X27114Y32270D01*
G01X27077Y32245D01*
G01X27043Y32213D01*
G01X27011Y32175D01*
G01X26980Y32131D01*
G01X26951Y32080D01*
G01X26924Y32023D01*
G01X26897Y31959D01*
G01X26872Y31888D01*
G01X26848Y31810D01*
G01X26825Y31725D01*
G01X26800Y31622D01*
G01X26782Y31535D01*
G01X26772Y31463D01*
G01X26769Y31406D01*
G01X26773Y31360D01*
G01X26784Y31327D01*
G01X26802Y31304D01*
G01X26828Y31290D01*
G01X26887Y31286D01*
G01X26933Y31314D01*
G01X26968Y31375D01*
G01X26990Y31470D01*
G01X27010Y31599D01*
G01X27553Y31599D01*
G01X27580Y31477D01*
G01X27607Y31392D01*
G01X27646Y31335D01*
G01X27694Y31309D01*
G01X27749Y31314D01*
G01X27769Y31330D01*
G01X27783Y31357D01*
G01X27792Y31396D01*
G01X27795Y31445D01*
G01X27793Y31502D01*
G01X27786Y31567D01*
G01X27774Y31637D01*
G01X27757Y31713D01*
G01X27736Y31793D01*
G01X27710Y31874D01*
G01X27681Y31958D01*
G01X27647Y32041D01*
G01X27619Y32101D01*
G01X27592Y32150D01*
G01X27564Y32192D01*
G01X27534Y32226D01*
G01X27501Y32253D01*
G01X27465Y32275D01*
G01X27425Y32291D01*
G01X27379Y32303D01*
G01X27328Y32311D01*
G37*

%LPC*%
G36*
G01X27346Y32080D02*
G01X27296Y32100D01*
G01X27270Y32094D01*
G01X27240Y32081D01*
G01X27209Y32061D01*
G01X27182Y32037D01*
G01X27157Y32006D01*
G01X27132Y31967D01*
G01X27110Y31927D01*
G01X27094Y31890D01*
G01X27065Y31805D01*
G01X27286Y31805D01*
G01X27411Y31806D01*
G01X27475Y31814D01*
G01X27494Y31834D01*
G01X27486Y31871D01*
G01X27450Y31954D01*
G01X27401Y32027D01*
G01X27346Y32080D01*
G37*

%LPD*%
G36*
G01X25062Y32302D02*
G01X25028Y32305D01*
G01X24996Y32300D01*
G01X24970Y32283D01*
G01X24950Y32255D01*
G01X24935Y32213D01*
G01X24925Y32156D01*
G01X24918Y32084D01*
G01X24917Y31996D01*
G01X24920Y31890D01*
G01X24926Y31781D01*
G01X24935Y31692D01*
G01X24950Y31618D01*
G01X24971Y31558D01*
G01X25000Y31506D01*
G01X25039Y31459D01*
G01X25090Y31415D01*
G01X25153Y31369D01*
G01X25213Y31333D01*
G01X25273Y31314D01*
G01X25351Y31308D01*
G01X25465Y31311D01*
G01X25530Y31315D01*
G01X25590Y31323D01*
G01X25644Y31334D01*
G01X25693Y31348D01*
G01X25736Y31366D01*
G01X25775Y31388D01*
G01X25809Y31415D01*
G01X25839Y31446D01*
G01X25865Y31482D01*
G01X25887Y31523D01*
G01X25905Y31569D01*
G01X25919Y31621D01*
G01X25930Y31679D01*
G01X25938Y31743D01*
G01X25944Y31814D01*
G01X25947Y31891D01*
G01X25951Y32010D01*
G01X25957Y32087D01*
G01X25966Y32123D01*
G01X25979Y32118D01*
G01X26000Y32095D01*
G01X26038Y32081D01*
G01X26096Y32073D01*
G01X26180Y32070D01*
G01X26354Y32070D01*
G01X26363Y31695D01*
G01X26371Y31320D01*
G01X26547Y31320D01*
G01X26577Y32055D01*
G01X26745Y32064D01*
G01X26830Y32071D01*
G01X26886Y32083D01*
G01X26923Y32103D01*
G01X26946Y32132D01*
G01X26960Y32161D01*
G01X26967Y32186D01*
G01X26966Y32207D01*
G01X26957Y32224D01*
G01X26939Y32239D01*
G01X26909Y32250D01*
G01X26869Y32260D01*
G01X26815Y32266D01*
G01X26748Y32271D01*
G01X26666Y32274D01*
G01X26568Y32275D01*
G01X26455Y32276D01*
G01X26322Y32275D01*
G01X26216Y32274D01*
G01X26136Y32272D01*
G01X26076Y32267D01*
G01X26035Y32261D01*
G01X26008Y32252D01*
G01X25991Y32241D01*
G01X25983Y32227D01*
G01X25972Y32204D01*
G01X25963Y32198D01*
G01X25953Y32211D01*
G01X25940Y32242D01*
G01X25911Y32283D01*
G01X25868Y32303D01*
G01X25820Y32299D01*
G01X25773Y32270D01*
G01X25759Y32237D01*
G01X25747Y32173D01*
G01X25741Y32082D01*
G01X25738Y31965D01*
G01X25736Y31824D01*
G01X25727Y31731D01*
G01X25709Y31668D01*
G01X25678Y31619D01*
G01X25634Y31576D01*
G01X25578Y31544D01*
G01X25516Y31523D01*
G01X25450Y31515D01*
G01X25383Y31518D01*
G01X25319Y31533D01*
G01X25259Y31561D01*
G01X25208Y31600D01*
G01X25178Y31640D01*
G01X25160Y31699D01*
G01X25152Y31795D01*
G01X25150Y31947D01*
G01X25149Y32047D01*
G01X25145Y32127D01*
G01X25138Y32190D01*
G01X25127Y32237D01*
G01X25111Y32270D01*
G01X25090Y32291D01*
G01X25062Y32302D01*
G37*

%LPD*%
G36*
G01X22958Y32297D02*
G01X22926Y32299D01*
G01X22886Y32291D01*
G01X22867Y32283D01*
G01X22852Y32270D01*
G01X22841Y32247D01*
G01X22835Y32208D01*
G01X22831Y32149D01*
G01X22830Y32064D01*
G01X22831Y31948D01*
G01X22833Y31796D01*
G01X22835Y31709D01*
G01X22836Y31632D01*
G01X22838Y31563D01*
G01X22841Y31503D01*
G01X22845Y31451D01*
G01X22851Y31408D01*
G01X22858Y31373D01*
G01X22867Y31346D01*
G01X22878Y31327D01*
G01X22893Y31316D01*
G01X22910Y31313D01*
G01X22931Y31317D01*
G01X22956Y31328D01*
G01X22984Y31347D01*
G01X23016Y31373D01*
G01X23054Y31406D01*
G01X23096Y31445D01*
G01X23144Y31491D01*
G01X23198Y31544D01*
G01X23257Y31603D01*
G01X23562Y31907D01*
G01X23562Y31639D01*
G01X23564Y31541D01*
G01X23569Y31463D01*
G01X23578Y31402D01*
G01X23592Y31358D01*
G01X23610Y31329D01*
G01X23636Y31314D01*
G01X23667Y31311D01*
G01X23706Y31319D01*
G01X23737Y31338D01*
G01X23756Y31385D01*
G01X23767Y31483D01*
G01X23773Y31652D01*
G01X23776Y31765D01*
G01X23778Y31864D01*
G01X23778Y31950D01*
G01X23777Y32025D01*
G01X23775Y32088D01*
G01X23771Y32142D01*
G01X23766Y32185D01*
G01X23759Y32220D01*
G01X23751Y32246D01*
G01X23741Y32265D01*
G01X23729Y32277D01*
G01X23715Y32283D01*
G01X23686Y32287D01*
G01X23658Y32284D01*
G01X23627Y32272D01*
G01X23589Y32247D01*
G01X23543Y32208D01*
G01X23484Y32153D01*
G01X23410Y32079D01*
G01X23318Y31984D01*
G01X23265Y31930D01*
G01X23217Y31881D01*
G01X23171Y31835D01*
G01X23131Y31796D01*
G01X23098Y31763D01*
G01X23072Y31738D01*
G01X23054Y31723D01*
G01X23046Y31717D01*
G01X23041Y31738D01*
G01X23036Y31794D01*
G01X23034Y31877D01*
G01X23032Y31978D01*
G01X23031Y32074D01*
G01X23026Y32151D01*
G01X23016Y32211D01*
G01X23002Y32254D01*
G01X22983Y32282D01*
G01X22958Y32297D01*
G37*

%LPD*%
G36*
G01X28406Y32357D02*
G01X28362Y32358D01*
G01X28315Y32356D01*
G01X28263Y32349D01*
G01X28200Y32338D01*
G01X28125Y32322D01*
G01X28050Y32304D01*
G01X27987Y32284D01*
G01X27937Y32263D01*
G01X27900Y32241D01*
G01X27875Y32216D01*
G01X27862Y32191D01*
G01X27862Y32164D01*
G01X27875Y32136D01*
G01X27889Y32117D01*
G01X27909Y32104D01*
G01X27935Y32094D01*
G01X27972Y32090D01*
G01X28021Y32090D01*
G01X28086Y32094D01*
G01X28170Y32102D01*
G01X28274Y32114D01*
G01X28377Y32123D01*
G01X28449Y32123D01*
G01X28502Y32111D01*
G01X28548Y32087D01*
G01X28584Y32058D01*
G01X28602Y32032D01*
G01X28604Y32010D01*
G01X28589Y31990D01*
G01X28558Y31974D01*
G01X28512Y31962D01*
G01X28451Y31954D01*
G01X28374Y31951D01*
G01X28288Y31949D01*
G01X28208Y31943D01*
G01X28134Y31935D01*
G01X28067Y31924D01*
G01X28008Y31910D01*
G01X27959Y31894D01*
G01X27920Y31875D01*
G01X27893Y31855D01*
G01X27874Y31826D01*
G01X27858Y31782D01*
G01X27845Y31727D01*
G01X27836Y31668D01*
G01X27834Y31609D01*
G01X27839Y31557D01*
G01X27852Y31512D01*
G01X27871Y31472D01*
G01X27899Y31438D01*
G01X27934Y31409D01*
G01X27979Y31385D01*
G01X28032Y31366D01*
G01X28095Y31352D01*
G01X28168Y31342D01*
G01X28251Y31336D01*
G01X28344Y31334D01*
G01X28453Y31338D01*
G01X28545Y31347D01*
G01X28621Y31362D01*
G01X28681Y31383D01*
G01X28724Y31410D01*
G01X28750Y31442D01*
G01X28759Y31480D01*
G01X28750Y31523D01*
G01X28727Y31543D01*
G01X28672Y31555D01*
G01X28571Y31560D01*
G01X28298Y31560D01*
G01X28205Y31563D01*
G01X28133Y31570D01*
G01X28082Y31580D01*
G01X28050Y31596D01*
G01X28037Y31616D01*
G01X28041Y31641D01*
G01X28061Y31672D01*
G01X28089Y31693D01*
G01X28135Y31706D01*
G01X28202Y31714D01*
G01X28294Y31717D01*
G01X28383Y31719D01*
G01X28464Y31726D01*
G01X28535Y31736D01*
G01X28597Y31751D01*
G01X28651Y31769D01*
G01X28696Y31793D01*
G01X28735Y31821D01*
G01X28767Y31854D01*
G01X28794Y31897D01*
G01X28812Y31943D01*
G01X28821Y31989D01*
G01X28822Y32037D01*
G01X28814Y32084D01*
G01X28798Y32129D01*
G01X28775Y32173D01*
G01X28745Y32213D01*
G01X28708Y32249D01*
G01X28664Y32281D01*
G01X28616Y32306D01*
G01X28561Y32325D01*
G01X28502Y32340D01*
G01X28452Y32350D01*
G01X28406Y32357D01*
G37*

%LPD*%
G36*
G01X24681Y32306D02*
G01X24597Y32307D01*
G01X24507Y32304D01*
G01X24415Y32299D01*
G01X24324Y32291D01*
G01X24238Y32280D01*
G01X24162Y32267D01*
G01X24097Y32251D01*
G01X24051Y32234D01*
G01X24003Y32205D01*
G01X23962Y32171D01*
G01X23928Y32133D01*
G01X23902Y32090D01*
G01X23884Y32046D01*
G01X23872Y31999D01*
G01X23870Y31951D01*
G01X23874Y31904D01*
G01X23888Y31857D01*
G01X23909Y31813D01*
G01X23939Y31771D01*
G01X23978Y31733D01*
G01X24010Y31704D01*
G01X24037Y31679D01*
G01X24055Y31659D01*
G01X24062Y31648D01*
G01X24054Y31637D01*
G01X24032Y31619D01*
G01X24000Y31597D01*
G01X23962Y31572D01*
G01X23890Y31519D01*
G01X23849Y31469D01*
G01X23839Y31420D01*
G01X23859Y31375D01*
G01X23884Y31353D01*
G01X23913Y31341D01*
G01X23949Y31339D01*
G01X23992Y31349D01*
G01X24045Y31372D01*
G01X24109Y31406D01*
G01X24185Y31453D01*
G01X24275Y31513D01*
G01X24399Y31603D01*
G01X24478Y31668D01*
G01X24520Y31719D01*
G01X24532Y31760D01*
G01X24522Y31811D01*
G01X24485Y31843D01*
G01X24414Y31859D01*
G01X24301Y31864D01*
G01X24205Y31871D01*
G01X24141Y31892D01*
G01X24110Y31926D01*
G01X24112Y31971D01*
G01X24128Y31998D01*
G01X24154Y32023D01*
G01X24190Y32045D01*
G01X24235Y32063D01*
G01X24286Y32079D01*
G01X24343Y32090D01*
G01X24406Y32097D01*
G01X24472Y32100D01*
G01X24650Y32100D01*
G01X24650Y31750D01*
G01X24651Y31624D01*
G01X24655Y31524D01*
G01X24663Y31450D01*
G01X24677Y31396D01*
G01X24696Y31362D01*
G01X24723Y31343D01*
G01X24758Y31336D01*
G01X24803Y31340D01*
G01X24825Y31344D01*
G01X24842Y31353D01*
G01X24854Y31372D01*
G01X24863Y31405D01*
G01X24869Y31459D01*
G01X24873Y31537D01*
G01X24876Y31646D01*
G01X24879Y31789D01*
G01X24880Y31879D01*
G01X24881Y31963D01*
G01X24881Y32042D01*
G01X24880Y32112D01*
G01X24879Y32172D01*
G01X24877Y32219D01*
G01X24874Y32252D01*
G01X24872Y32270D01*
G01X24853Y32284D01*
G01X24812Y32295D01*
G01X24753Y32302D01*
G01X24681Y32306D01*
G37*

%LPD*%
G36*
G01X25487Y33502D02*
G01X25417Y33503D01*
G01X25347Y33499D01*
G01X25278Y33489D01*
G01X25213Y33474D01*
G01X25152Y33454D01*
G01X25098Y33430D01*
G01X25052Y33403D01*
G01X25015Y33373D01*
G01X24991Y33339D01*
G01X24979Y33303D01*
G01X24979Y33270D01*
G01X24986Y33237D01*
G01X25000Y33209D01*
G01X25017Y33188D01*
G01X25046Y33170D01*
G01X25076Y33168D01*
G01X25118Y33181D01*
G01X25178Y33213D01*
G01X25228Y33237D01*
G01X25281Y33255D01*
G01X25334Y33267D01*
G01X25389Y33273D01*
G01X25442Y33272D01*
G01X25494Y33265D01*
G01X25545Y33252D01*
G01X25592Y33231D01*
G01X25650Y33192D01*
G01X25694Y33143D01*
G01X25724Y33087D01*
G01X25740Y33026D01*
G01X25741Y32961D01*
G01X25727Y32895D01*
G01X25697Y32831D01*
G01X25652Y32769D01*
G01X25602Y32717D01*
G01X25554Y32688D01*
G01X25493Y32676D01*
G01X25404Y32673D01*
G01X25320Y32676D01*
G01X25259Y32686D01*
G01X25214Y32707D01*
G01X25174Y32739D01*
G01X25107Y32805D01*
G01X25273Y32805D01*
G01X25386Y32813D01*
G01X25459Y32840D01*
G01X25495Y32887D01*
G01X25498Y32958D01*
G01X25487Y32996D01*
G01X25451Y33016D01*
G01X25366Y33025D01*
G01X25209Y33026D01*
G01X24930Y33026D01*
G01X24920Y32882D01*
G01X24919Y32820D01*
G01X24924Y32758D01*
G01X24932Y32703D01*
G01X24943Y32661D01*
G01X24967Y32619D01*
G01X25000Y32580D01*
G01X25041Y32544D01*
G01X25089Y32513D01*
G01X25143Y32485D01*
G01X25201Y32463D01*
G01X25263Y32445D01*
G01X25327Y32434D01*
G01X25392Y32429D01*
G01X25456Y32430D01*
G01X25519Y32437D01*
G01X25580Y32452D01*
G01X25637Y32474D01*
G01X25689Y32500D01*
G01X25737Y32532D01*
G01X25781Y32568D01*
G01X25820Y32609D01*
G01X25854Y32654D01*
G01X25883Y32703D01*
G01X25906Y32755D01*
G01X25925Y32812D01*
G01X25938Y32872D01*
G01X25946Y32936D01*
G01X25948Y33002D01*
G01X25945Y33061D01*
G01X25937Y33117D01*
G01X25925Y33170D01*
G01X25908Y33220D01*
G01X25887Y33265D01*
G01X25861Y33308D01*
G01X25831Y33347D01*
G01X25797Y33381D01*
G01X25758Y33412D01*
G01X25716Y33439D01*
G01X25670Y33460D01*
G01X25620Y33478D01*
G01X25555Y33493D01*
G01X25487Y33502D01*
G37*

%LPD*%
G36*
G01X27471Y33466D02*
G01X27397Y33468D01*
G01X27315Y33465D01*
G01X27230Y33459D01*
G01X27147Y33449D01*
G01X27067Y33437D01*
G01X26998Y33421D01*
G01X26918Y33386D01*
G01X26872Y33336D01*
G01X26864Y33280D01*
G01X26896Y33223D01*
G01X26926Y33200D01*
G01X26961Y33192D01*
G01X27013Y33195D01*
G01X27093Y33212D01*
G01X27166Y33227D01*
G01X27235Y33237D01*
G01X27301Y33243D01*
G01X27362Y33244D01*
G01X27417Y33241D01*
G01X27466Y33235D01*
G01X27508Y33224D01*
G01X27542Y33210D01*
G01X27567Y33192D01*
G01X27582Y33171D01*
G01X27588Y33146D01*
G01X27582Y33119D01*
G01X27564Y33094D01*
G01X27524Y33079D01*
G01X27456Y33072D01*
G01X27350Y33070D01*
G01X27257Y33068D01*
G01X27174Y33063D01*
G01X27102Y33054D01*
G01X27039Y33041D01*
G01X26985Y33024D01*
G01X26941Y33002D01*
G01X26904Y32975D01*
G01X26875Y32943D01*
G01X26853Y32906D01*
G01X26838Y32864D01*
G01X26830Y32815D01*
G01X26826Y32760D01*
G01X26830Y32710D01*
G01X26840Y32665D01*
G01X26857Y32624D01*
G01X26881Y32588D01*
G01X26911Y32556D01*
G01X26949Y32528D01*
G01X26993Y32505D01*
G01X27044Y32486D01*
G01X27103Y32471D01*
G01X27169Y32461D01*
G01X27242Y32455D01*
G01X27321Y32453D01*
G01X27412Y32455D01*
G01X27493Y32461D01*
G01X27564Y32470D01*
G01X27624Y32484D01*
G01X27674Y32501D01*
G01X27712Y32522D01*
G01X27739Y32547D01*
G01X27755Y32574D01*
G01X27763Y32613D01*
G01X27760Y32644D01*
G01X27747Y32668D01*
G01X27723Y32686D01*
G01X27689Y32696D01*
G01X27642Y32699D01*
G01X27585Y32695D01*
G01X27516Y32685D01*
G01X27445Y32674D01*
G01X27376Y32667D01*
G01X27310Y32665D01*
G01X27248Y32667D01*
G01X27193Y32674D01*
G01X27145Y32685D01*
G01X27105Y32699D01*
G01X27075Y32718D01*
G01X27052Y32743D01*
G01X27045Y32766D01*
G01X27057Y32785D01*
G01X27085Y32803D01*
G01X27131Y32817D01*
G01X27195Y32831D01*
G01X27278Y32842D01*
G01X27378Y32851D01*
G01X27465Y32857D01*
G01X27534Y32865D01*
G01X27588Y32872D01*
G01X27630Y32882D01*
G01X27664Y32894D01*
G01X27692Y32909D01*
G01X27718Y32929D01*
G01X27744Y32954D01*
G01X27778Y32995D01*
G01X27802Y33040D01*
G01X27817Y33088D01*
G01X27823Y33136D01*
G01X27819Y33186D01*
G01X27807Y33234D01*
G01X27788Y33281D01*
G01X27761Y33325D01*
G01X27726Y33365D01*
G01X27684Y33401D01*
G01X27636Y33429D01*
G01X27581Y33451D01*
G01X27534Y33461D01*
G01X27471Y33466D01*
G37*

%LPD*%
G36*
G01X26633Y33448D02*
G01X26566Y33449D01*
G01X26476Y33448D01*
G01X26362Y33446D01*
G01X25988Y33438D01*
G01X25988Y33261D01*
G01X26565Y33244D01*
G01X26556Y33164D01*
G01X26547Y33119D01*
G01X26520Y33094D01*
G01X26456Y33082D01*
G01X26337Y33076D01*
G01X26260Y33071D01*
G01X26200Y33064D01*
G01X26154Y33052D01*
G01X26122Y33037D01*
G01X26104Y33016D01*
G01X26099Y32991D01*
G01X26105Y32959D01*
G01X26122Y32921D01*
G01X26145Y32892D01*
G01X26184Y32875D01*
G01X26251Y32866D01*
G01X26357Y32864D01*
G01X26473Y32863D01*
G01X26534Y32854D01*
G01X26558Y32832D01*
G01X26562Y32790D01*
G01X26558Y32748D01*
G01X26530Y32726D01*
G01X26456Y32718D01*
G01X26314Y32717D01*
G01X26215Y32716D01*
G01X26137Y32713D01*
G01X26077Y32708D01*
G01X26033Y32698D01*
G01X26004Y32685D01*
G01X25985Y32667D01*
G01X25976Y32643D01*
G01X25974Y32612D01*
G01X25978Y32577D01*
G01X25992Y32548D01*
G01X26017Y32525D01*
G01X26056Y32508D01*
G01X26110Y32496D01*
G01X26182Y32488D01*
G01X26272Y32483D01*
G01X26383Y32482D01*
G01X26456Y32482D01*
G01X26519Y32483D01*
G01X26573Y32485D01*
G01X26621Y32489D01*
G01X26660Y32497D01*
G01X26693Y32507D01*
G01X26721Y32523D01*
G01X26743Y32542D01*
G01X26759Y32568D01*
G01X26773Y32601D01*
G01X26782Y32640D01*
G01X26788Y32687D01*
G01X26792Y32743D01*
G01X26794Y32808D01*
G01X26795Y32883D01*
G01X26795Y32969D01*
G01X26794Y33044D01*
G01X26793Y33118D01*
G01X26790Y33186D01*
G01X26787Y33248D01*
G01X26782Y33302D01*
G01X26777Y33346D01*
G01X26772Y33378D01*
G01X26766Y33397D01*
G01X26754Y33415D01*
G01X26739Y33428D01*
G01X26716Y33438D01*
G01X26682Y33444D01*
G01X26633Y33448D01*
G37*

%LPD*%
G36*
G01X24422Y33508D02*
G01X24347Y33511D01*
G01X24273Y33508D01*
G01X24218Y33493D01*
G01X24169Y33463D01*
G01X24114Y33413D01*
G01X24088Y33383D01*
G01X24061Y33344D01*
G01X24034Y33299D01*
G01X24007Y33249D01*
G01X23981Y33194D01*
G01X23956Y33135D01*
G01X23932Y33074D01*
G01X23910Y33011D01*
G01X23890Y32947D01*
G01X23871Y32884D01*
G01X23856Y32823D01*
G01X23844Y32763D01*
G01X23835Y32708D01*
G01X23829Y32656D01*
G01X23828Y32610D01*
G01X23831Y32570D01*
G01X23840Y32533D01*
G01X23856Y32511D01*
G01X23885Y32499D01*
G01X23929Y32496D01*
G01X23978Y32500D01*
G01X24008Y32518D01*
G01X24026Y32560D01*
G01X24043Y32636D01*
G01X24068Y32776D01*
G01X24617Y32776D01*
G01X24642Y32651D01*
G01X24657Y32587D01*
G01X24676Y32548D01*
G01X24703Y32526D01*
G01X24742Y32517D01*
G01X24812Y32521D01*
G01X24852Y32555D01*
G01X24865Y32624D01*
G01X24853Y32732D01*
G01X24838Y32808D01*
G01X24821Y32880D01*
G01X24803Y32950D01*
G01X24784Y33016D01*
G01X24763Y33078D01*
G01X24742Y33137D01*
G01X24718Y33192D01*
G01X24694Y33243D01*
G01X24670Y33289D01*
G01X24644Y33330D01*
G01X24618Y33366D01*
G01X24590Y33398D01*
G01X24529Y33457D01*
G01X24478Y33492D01*
G01X24422Y33508D01*
G37*

%LPC*%
G36*
G01X24398Y33282D02*
G01X24364Y33305D01*
G01X24355Y33303D01*
G01X24339Y33296D01*
G01X24318Y33287D01*
G01X24296Y33275D01*
G01X24249Y33234D01*
G01X24202Y33170D01*
G01X24165Y33099D01*
G01X24150Y33042D01*
G01X24165Y33029D01*
G01X24206Y33020D01*
G01X24271Y33013D01*
G01X24355Y33011D01*
G01X24560Y33011D01*
G01X24530Y33092D01*
G01X24496Y33156D01*
G01X24448Y33226D01*
G01X24398Y33282D01*
G37*

%LPD*%
G36*
G01X25874Y37029D02*
G01X25813Y37029D01*
G01X25750Y37027D01*
G01X25688Y37024D01*
G01X25627Y37020D01*
G01X25567Y37014D01*
G01X25511Y37008D01*
G01X25458Y37000D01*
G01X25409Y36991D01*
G01X25365Y36980D01*
G01X25326Y36968D01*
G01X25264Y36944D01*
G01X25191Y36913D01*
G01X25117Y36879D01*
G01X25051Y36845D01*
G01X25019Y36828D01*
G01X24989Y36814D01*
G01X24961Y36802D01*
G01X24931Y36792D01*
G01X24898Y36785D01*
G01X24861Y36780D01*
G01X24816Y36776D01*
G01X24762Y36773D01*
G01X24696Y36772D01*
G01X24618Y36772D01*
G01X24524Y36773D01*
G01X24413Y36774D01*
G01X24258Y36775D01*
G01X24139Y36775D01*
G01X24048Y36774D01*
G01X23983Y36769D01*
G01X23936Y36762D01*
G01X23903Y36752D01*
G01X23879Y36738D01*
G01X23858Y36719D01*
G01X23810Y36647D01*
G01X23798Y36568D01*
G01X23819Y36491D01*
G01X23874Y36426D01*
G01X23923Y36394D01*
G01X23981Y36378D01*
G01X24070Y36375D01*
G01X24212Y36383D01*
G01X24314Y36390D01*
G01X24397Y36391D01*
G01X24453Y36389D01*
G01X24473Y36383D01*
G01X24467Y36364D01*
G01X24450Y36327D01*
G01X24424Y36277D01*
G01X24393Y36219D01*
G01X24312Y36074D01*
G01X24032Y36089D01*
G01X23941Y36094D01*
G01X23869Y36097D01*
G01X23815Y36096D01*
G01X23771Y36091D01*
G01X23733Y36081D01*
G01X23698Y36065D01*
G01X23659Y36042D01*
G01X23612Y36011D01*
G01X23554Y35968D01*
G01X23506Y35926D01*
G01X23467Y35883D01*
G01X23436Y35838D01*
G01X23413Y35790D01*
G01X23397Y35737D01*
G01X23388Y35679D01*
G01X23385Y35614D01*
G01X23387Y35571D01*
G01X23392Y35529D01*
G01X23401Y35486D01*
G01X23413Y35444D01*
G01X23428Y35402D01*
G01X23447Y35360D01*
G01X23470Y35318D01*
G01X23496Y35277D01*
G01X23525Y35236D01*
G01X23559Y35195D01*
G01X23595Y35155D01*
G01X23635Y35114D01*
G01X23678Y35075D01*
G01X23725Y35035D01*
G01X23775Y34996D01*
G01X23829Y34957D01*
G01X23887Y34917D01*
G01X23948Y34878D01*
G01X24012Y34840D01*
G01X24080Y34802D01*
G01X24142Y34767D01*
G01X24194Y34735D01*
G01X24236Y34706D01*
G01X24271Y34676D01*
G01X24302Y34645D01*
G01X24330Y34610D01*
G01X24357Y34570D01*
G01X24385Y34522D01*
G01X24412Y34477D01*
G01X24442Y34432D01*
G01X24476Y34386D01*
G01X24513Y34340D01*
G01X24553Y34294D01*
G01X24595Y34247D01*
G01X24640Y34202D01*
G01X24685Y34158D01*
G01X24733Y34115D01*
G01X24781Y34074D01*
G01X24831Y34034D01*
G01X24880Y33997D01*
G01X24930Y33962D01*
G01X24978Y33930D01*
G01X25027Y33902D01*
G01X25075Y33876D01*
G01X25125Y33853D01*
G01X25178Y33831D01*
G01X25232Y33810D01*
G01X25288Y33791D01*
G01X25345Y33774D01*
G01X25404Y33758D01*
G01X25462Y33744D01*
G01X25521Y33732D01*
G01X25581Y33721D01*
G01X25640Y33712D01*
G01X25699Y33706D01*
G01X25757Y33701D01*
G01X25813Y33699D01*
G01X25868Y33698D01*
G01X25922Y33700D01*
G01X25973Y33704D01*
G01X26029Y33710D01*
G01X26088Y33720D01*
G01X26147Y33731D01*
G01X26207Y33744D01*
G01X26267Y33759D01*
G01X26325Y33775D01*
G01X26381Y33792D01*
G01X26435Y33811D01*
G01X26485Y33830D01*
G01X26531Y33850D01*
G01X26573Y33869D01*
G01X26609Y33890D01*
G01X26639Y33906D01*
G01X26671Y33919D01*
G01X26709Y33928D01*
G01X26757Y33934D01*
G01X26822Y33937D01*
G01X26906Y33937D01*
G01X27015Y33935D01*
G01X27153Y33931D01*
G01X27246Y33928D01*
G01X27337Y33927D01*
G01X27423Y33927D01*
G01X27502Y33928D01*
G01X27573Y33930D01*
G01X27632Y33933D01*
G01X27677Y33938D01*
G01X27707Y33943D01*
G01X27777Y33970D01*
G01X27832Y34010D01*
G01X27873Y34059D01*
G01X27897Y34113D01*
G01X27904Y34170D01*
G01X27894Y34225D01*
G01X27864Y34277D01*
G01X27815Y34321D01*
G01X27770Y34344D01*
G01X27714Y34352D01*
G01X27629Y34348D01*
G01X27497Y34331D01*
G01X27381Y34315D01*
G01X27293Y34307D01*
G01X27233Y34307D01*
G01X27197Y34318D01*
G01X27184Y34342D01*
G01X27190Y34379D01*
G01X27215Y34431D01*
G01X27254Y34501D01*
G01X27294Y34567D01*
G01X27326Y34625D01*
G01X27348Y34667D01*
G01X27356Y34687D01*
G01X27379Y34693D01*
G01X27442Y34696D01*
G01X27534Y34696D01*
G01X27647Y34693D01*
G01X27712Y34691D01*
G01X27775Y34690D01*
G01X27834Y34691D01*
G01X27888Y34694D01*
G01X27937Y34697D01*
G01X27980Y34703D01*
G01X28016Y34709D01*
G01X28044Y34716D01*
G01X28090Y34735D01*
G01X28132Y34758D01*
G01X28169Y34787D01*
G01X28202Y34820D01*
G01X28230Y34858D01*
G01X28254Y34899D01*
G01X28273Y34942D01*
G01X28287Y34989D01*
G01X28297Y35037D01*
G01X28301Y35087D01*
G01X28300Y35138D01*
G01X28294Y35190D01*
G01X28282Y35242D01*
G01X28265Y35294D01*
G01X28242Y35345D01*
G01X28214Y35395D01*
G01X28188Y35433D01*
G01X28160Y35470D01*
G01X28129Y35508D01*
G01X28095Y35546D01*
G01X28058Y35584D01*
G01X28019Y35622D01*
G01X27978Y35660D01*
G01X27934Y35697D01*
G01X27889Y35734D01*
G01X27842Y35770D01*
G01X27793Y35805D01*
G01X27743Y35839D01*
G01X27692Y35873D01*
G01X27639Y35905D01*
G01X27585Y35935D01*
G01X27531Y35964D01*
G01X27436Y36017D01*
G01X27374Y36064D01*
G01X27327Y36121D01*
G01X27282Y36202D01*
G01X27266Y36230D01*
G01X27242Y36265D01*
G01X27212Y36305D01*
G01X27176Y36349D01*
G01X27136Y36396D01*
G01X27093Y36445D01*
G01X27048Y36493D01*
G01X27003Y36540D01*
G01X26957Y36585D01*
G01X26911Y36627D01*
G01X26865Y36667D01*
G01X26818Y36705D01*
G01X26771Y36741D01*
G01X26723Y36774D01*
G01X26675Y36806D01*
G01X26625Y36835D01*
G01X26576Y36862D01*
G01X26525Y36887D01*
G01X26473Y36910D01*
G01X26421Y36932D01*
G01X26368Y36951D01*
G01X26313Y36969D01*
G01X26257Y36984D01*
G01X26200Y36998D01*
G01X26155Y37007D01*
G01X26106Y37014D01*
G01X26052Y37020D01*
G01X25995Y37025D01*
G01X25936Y37027D01*
G01X25874Y37029D01*
G37*

%LPC*%
G36*
G01X24480Y35591D02*
G01X24455Y35592D01*
G01X24430Y35590D01*
G01X24399Y35581D01*
G01X24379Y35555D01*
G01X24368Y35502D01*
G01X24362Y35413D01*
G01X24360Y35354D01*
G01X24361Y35296D01*
G01X24365Y35239D01*
G01X24371Y35182D01*
G01X24380Y35124D01*
G01X24392Y35067D01*
G01X24407Y35009D01*
G01X24425Y34951D01*
G01X24445Y34892D01*
G01X24469Y34833D01*
G01X24495Y34772D01*
G01X24525Y34709D01*
G01X24554Y34655D01*
G01X24584Y34603D01*
G01X24616Y34553D01*
G01X24650Y34504D01*
G01X24685Y34457D01*
G01X24722Y34412D01*
G01X24760Y34369D01*
G01X24801Y34328D01*
G01X24842Y34288D01*
G01X24885Y34251D01*
G01X24929Y34215D01*
G01X24974Y34182D01*
G01X25021Y34150D01*
G01X25068Y34120D01*
G01X25116Y34092D01*
G01X25166Y34066D01*
G01X25216Y34042D01*
G01X25267Y34020D01*
G01X25319Y33999D01*
G01X25371Y33982D01*
G01X25424Y33965D01*
G01X25478Y33951D01*
G01X25532Y33939D01*
G01X25586Y33929D01*
G01X25641Y33921D01*
G01X25697Y33915D01*
G01X25752Y33911D01*
G01X25807Y33909D01*
G01X25863Y33909D01*
G01X25919Y33912D01*
G01X25974Y33916D01*
G01X26029Y33922D01*
G01X26085Y33931D01*
G01X26140Y33942D01*
G01X26195Y33955D01*
G01X26249Y33969D01*
G01X26303Y33987D01*
G01X26356Y34007D01*
G01X26409Y34028D01*
G01X26461Y34052D01*
G01X26512Y34078D01*
G01X26563Y34106D01*
G01X26613Y34137D01*
G01X26661Y34170D01*
G01X26709Y34204D01*
G01X26756Y34242D01*
G01X26802Y34281D01*
G01X26847Y34323D01*
G01X26904Y34383D01*
G01X26961Y34450D01*
G01X27015Y34519D01*
G01X27064Y34587D01*
G01X27104Y34649D01*
G01X27133Y34701D01*
G01X27148Y34740D01*
G01X27145Y34759D01*
G01X27126Y34766D01*
G01X27082Y34779D01*
G01X27019Y34797D01*
G01X26929Y34821D01*
G01X26907Y34828D01*
G01X26878Y34837D01*
G01X26843Y34847D01*
G01X26802Y34860D01*
G01X26754Y34874D01*
G01X26702Y34890D01*
G01X26645Y34908D01*
G01X26584Y34927D01*
G01X26518Y34948D01*
G01X26449Y34969D01*
G01X26376Y34992D01*
G01X26300Y35016D01*
G01X26222Y35040D01*
G01X26141Y35066D01*
G01X26059Y35092D01*
G01X25975Y35118D01*
G01X25805Y35172D01*
G01X25547Y35253D01*
G01X25463Y35280D01*
G01X25380Y35307D01*
G01X25298Y35332D01*
G01X25218Y35358D01*
G01X25140Y35383D01*
G01X25066Y35407D01*
G01X24994Y35429D01*
G01X24926Y35451D01*
G01X24861Y35472D01*
G01X24801Y35491D01*
G01X24746Y35509D01*
G01X24695Y35525D01*
G01X24611Y35553D01*
G01X24577Y35564D01*
G01X24550Y35573D01*
G01X24530Y35580D01*
G01X24518Y35584D01*
G01X24502Y35588D01*
G01X24480Y35591D01*
G37*
G36*
G01X27560Y35469D02*
G01X27533Y35482D01*
G01X27521Y35469D01*
G01X27512Y35435D01*
G01X27505Y35383D01*
G01X27503Y35320D01*
G01X27503Y35158D01*
G01X27502Y35136D01*
G01X27548Y35114D01*
G01X27653Y35095D01*
G01X27769Y35085D01*
G01X27846Y35091D01*
G01X27861Y35099D01*
G01X27874Y35110D01*
G01X27882Y35124D01*
G01X27885Y35137D01*
G01X27872Y35164D01*
G01X27836Y35208D01*
G01X27785Y35264D01*
G01X27725Y35325D01*
G01X27663Y35383D01*
G01X27605Y35434D01*
G01X27560Y35469D01*
G37*
G36*
G01X25899Y36835D02*
G01X25836Y36837D01*
G01X25774Y36836D01*
G01X25711Y36832D01*
G01X25648Y36826D01*
G01X25585Y36817D01*
G01X25523Y36805D01*
G01X25460Y36789D01*
G01X25405Y36774D01*
G01X25350Y36756D01*
G01X25296Y36736D01*
G01X25243Y36713D01*
G01X25191Y36689D01*
G01X25139Y36662D01*
G01X25088Y36632D01*
G01X25038Y36601D01*
G01X24990Y36568D01*
G01X24941Y36532D01*
G01X24895Y36494D01*
G01X24848Y36455D01*
G01X24790Y36398D01*
G01X24730Y36334D01*
G01X24673Y36265D01*
G01X24619Y36196D01*
G01X24573Y36132D01*
G01X24539Y36076D01*
G01X24520Y36034D01*
G01X24519Y36010D01*
G01X24531Y36000D01*
G01X24556Y35990D01*
G01X24589Y35979D01*
G01X24647Y35965D01*
G01X24679Y35957D01*
G01X24721Y35944D01*
G01X24774Y35928D01*
G01X24837Y35909D01*
G01X24907Y35887D01*
G01X24984Y35862D01*
G01X25068Y35836D01*
G01X25157Y35807D01*
G01X25250Y35777D01*
G01X25346Y35746D01*
G01X25444Y35713D01*
G01X25612Y35659D01*
G01X25696Y35631D01*
G01X25862Y35578D01*
G01X25944Y35552D01*
G01X26024Y35526D01*
G01X26104Y35502D01*
G01X26182Y35477D01*
G01X26259Y35453D01*
G01X26335Y35430D01*
G01X26408Y35408D01*
G01X26480Y35386D01*
G01X26550Y35365D01*
G01X26617Y35345D01*
G01X26682Y35325D01*
G01X26744Y35307D01*
G01X26804Y35290D01*
G01X26861Y35273D01*
G01X26915Y35258D01*
G01X26966Y35244D01*
G01X27013Y35231D01*
G01X27057Y35219D01*
G01X27098Y35208D01*
G01X27134Y35199D01*
G01X27167Y35192D01*
G01X27195Y35185D01*
G01X27220Y35180D01*
G01X27239Y35176D01*
G01X27255Y35174D01*
G01X27265Y35174D01*
G01X27271Y35175D01*
G01X27284Y35197D01*
G01X27292Y35241D01*
G01X27296Y35303D01*
G01X27296Y35377D01*
G01X27291Y35458D01*
G01X27282Y35543D01*
G01X27269Y35627D01*
G01X27253Y35703D01*
G01X27234Y35772D01*
G01X27213Y35837D01*
G01X27190Y35900D01*
G01X27165Y35961D01*
G01X27137Y36019D01*
G01X27106Y36076D01*
G01X27073Y36131D01*
G01X27036Y36185D01*
G01X26997Y36238D01*
G01X26954Y36291D01*
G01X26907Y36342D01*
G01X26857Y36394D01*
G01X26809Y36440D01*
G01X26759Y36485D01*
G01X26708Y36526D01*
G01X26656Y36565D01*
G01X26602Y36601D01*
G01X26548Y36635D01*
G01X26493Y36666D01*
G01X26437Y36695D01*
G01X26379Y36721D01*
G01X26322Y36745D01*
G01X26263Y36765D01*
G01X26204Y36784D01*
G01X26144Y36800D01*
G01X26083Y36812D01*
G01X26022Y36822D01*
G01X25960Y36830D01*
G01X25899Y36835D01*
G37*
G36*
G01X24103Y35686D02*
G01X23998Y35688D01*
G01X23892Y35673D01*
G01X23828Y35645D01*
G01X23810Y35618D01*
G01X23802Y35591D01*
G01X23803Y35563D01*
G01X23815Y35532D01*
G01X23837Y35498D01*
G01X23871Y35459D01*
G01X23916Y35417D01*
G01X23974Y35368D01*
G01X24136Y35236D01*
G01X24154Y35440D01*
G01X24160Y35520D01*
G01X24163Y35590D01*
G01X24163Y35641D01*
G01X24159Y35666D01*
G01X24103Y35686D01*
G37*

%LPD*%
G36*
G01X14563Y34204D02*
G01X14506Y34206D01*
G01X14446Y34205D01*
G01X14385Y34202D01*
G01X14326Y34196D01*
G01X14272Y34186D01*
G01X14228Y34175D01*
G01X14187Y34161D01*
G01X14151Y34146D01*
G01X14119Y34129D01*
G01X14090Y34109D01*
G01X14062Y34085D01*
G01X14036Y34055D01*
G01X14009Y34018D01*
G01X13982Y33975D01*
G01X13953Y33922D01*
G01X13921Y33859D01*
G01X13886Y33786D01*
G01X13846Y33700D01*
G01X13787Y33570D01*
G01X13740Y33461D01*
G01X13710Y33387D01*
G01X13701Y33357D01*
G01X13725Y33367D01*
G01X13786Y33399D01*
G01X13872Y33449D01*
G01X13977Y33512D01*
G01X14075Y33572D01*
G01X14161Y33620D01*
G01X14235Y33660D01*
G01X14300Y33691D01*
G01X14358Y33713D01*
G01X14409Y33728D01*
G01X14456Y33736D01*
G01X14501Y33739D01*
G01X14557Y33733D01*
G01X14614Y33714D01*
G01X14671Y33687D01*
G01X14725Y33649D01*
G01X14774Y33605D01*
G01X14817Y33554D01*
G01X14852Y33500D01*
G01X14877Y33443D01*
G01X14887Y33399D01*
G01X14893Y33340D01*
G01X14896Y33269D01*
G01X14894Y33191D01*
G01X14886Y33097D01*
G01X14874Y33023D01*
G01X14853Y32956D01*
G01X14820Y32882D01*
G01X14791Y32825D01*
G01X14759Y32771D01*
G01X14725Y32719D01*
G01X14687Y32669D01*
G01X14647Y32620D01*
G01X14603Y32572D01*
G01X14556Y32526D01*
G01X14505Y32481D01*
G01X14460Y32446D01*
G01X14405Y32409D01*
G01X14346Y32372D01*
G01X14286Y32338D01*
G01X14231Y32308D01*
G01X14183Y32286D01*
G01X14148Y32274D01*
G01X14131Y32274D01*
G01X14132Y32297D01*
G01X14142Y32348D01*
G01X14161Y32422D01*
G01X14185Y32510D01*
G01X14251Y32735D01*
G01X14342Y32747D01*
G01X14384Y32752D01*
G01X14428Y32756D01*
G01X14471Y32758D01*
G01X14506Y32759D01*
G01X14580Y32759D01*
G01X14438Y32880D01*
G01X14525Y32881D01*
G01X14559Y32883D01*
G01X14586Y32886D01*
G01X14605Y32892D01*
G01X14612Y32899D01*
G01X14605Y32910D01*
G01X14584Y32931D01*
G01X14554Y32957D01*
G01X14518Y32985D01*
G01X14424Y33056D01*
G01X14482Y33067D01*
G01X14500Y33076D01*
G01X14478Y33093D01*
G01X14406Y33121D01*
G01X14276Y33164D01*
G01X14171Y33197D01*
G01X14082Y33224D01*
G01X14018Y33243D01*
G01X13988Y33249D01*
G01X13977Y33237D01*
G01X13965Y33204D01*
G01X13953Y33154D01*
G01X13942Y33091D01*
G01X13939Y33071D01*
G01X13934Y33044D01*
G01X13929Y33011D01*
G01X13923Y32973D01*
G01X13916Y32928D01*
G01X13908Y32879D01*
G01X13899Y32825D01*
G01X13889Y32767D01*
G01X13879Y32705D01*
G01X13868Y32641D01*
G01X13857Y32573D01*
G01X13846Y32503D01*
G01X13833Y32431D01*
G01X13821Y32358D01*
G01X13809Y32284D01*
G01X13796Y32210D01*
G01X13780Y32112D01*
G01X13764Y32018D01*
G01X13749Y31928D01*
G01X13736Y31844D01*
G01X13723Y31767D01*
G01X13712Y31697D01*
G01X13702Y31635D01*
G01X13694Y31582D01*
G01X13688Y31539D01*
G01X13684Y31507D01*
G01X13681Y31486D01*
G01X13681Y31479D01*
G01X13699Y31483D01*
G01X13741Y31501D01*
G01X13803Y31530D01*
G01X13878Y31567D01*
G01X13962Y31610D01*
G01X14050Y31657D01*
G01X14135Y31704D01*
G01X14214Y31750D01*
G01X14281Y31790D01*
G01X14345Y31830D01*
G01X14406Y31869D01*
G01X14464Y31908D01*
G01X14519Y31946D01*
G01X14570Y31984D01*
G01X14620Y32022D01*
G01X14666Y32059D01*
G01X14709Y32097D01*
G01X14750Y32135D01*
G01X14789Y32173D01*
G01X14825Y32211D01*
G01X14860Y32250D01*
G01X14893Y32290D01*
G01X14923Y32330D01*
G01X14951Y32370D01*
G01X14978Y32412D01*
G01X15004Y32455D01*
G01X15028Y32498D01*
G01X15050Y32544D01*
G01X15080Y32608D01*
G01X15106Y32669D01*
G01X15128Y32729D01*
G01X15148Y32787D01*
G01X15163Y32846D01*
G01X15177Y32906D01*
G01X15187Y32967D01*
G01X15194Y33032D01*
G01X15199Y33100D01*
G01X15201Y33173D01*
G01X15202Y33252D01*
G01X15200Y33338D01*
G01X15198Y33430D01*
G01X15195Y33504D01*
G01X15191Y33561D01*
G01X15185Y33606D01*
G01X15177Y33645D01*
G01X15164Y33680D01*
G01X15149Y33718D01*
G01X15128Y33761D01*
G01X15101Y33811D01*
G01X15071Y33860D01*
G01X15038Y33906D01*
G01X15002Y33950D01*
G01X14964Y33992D01*
G01X14924Y34030D01*
G01X14882Y34066D01*
G01X14838Y34098D01*
G01X14793Y34126D01*
G01X14747Y34151D01*
G01X14700Y34173D01*
G01X14653Y34189D01*
G01X14613Y34198D01*
G01X14563Y34204D01*
G37*

%LPD*%
G36*
G01X12709Y34407D02*
G01X12704Y34411D01*
G01X12693Y34406D01*
G01X12670Y34391D01*
G01X12637Y34366D01*
G01X12594Y34334D01*
G01X12544Y34294D01*
G01X12487Y34249D01*
G01X12425Y34200D01*
G01X12360Y34146D01*
G01X12282Y34082D01*
G01X12216Y34027D01*
G01X12164Y33982D01*
G01X12124Y33945D01*
G01X12096Y33917D01*
G01X12079Y33897D01*
G01X12074Y33886D01*
G01X12080Y33882D01*
G01X12101Y33878D01*
G01X12102Y33862D01*
G01X12079Y33825D01*
G01X12030Y33760D01*
G01X11995Y33712D01*
G01X11969Y33673D01*
G01X11955Y33647D01*
G01X11955Y33637D01*
G01X11969Y33639D01*
G01X11993Y33646D01*
G01X12024Y33655D01*
G01X12058Y33667D01*
G01X12114Y33683D01*
G01X12138Y33680D01*
G01X12131Y33658D01*
G01X12091Y33616D01*
G01X12072Y33598D01*
G01X12058Y33580D01*
G01X12050Y33568D01*
G01X12049Y33561D01*
G01X12057Y33562D01*
G01X12080Y33567D01*
G01X12113Y33577D01*
G01X12157Y33592D01*
G01X12210Y33609D01*
G01X12271Y33630D01*
G01X12337Y33653D01*
G01X12407Y33678D01*
G01X12479Y33703D01*
G01X12546Y33726D01*
G01X12608Y33746D01*
G01X12663Y33763D01*
G01X12711Y33777D01*
G01X12748Y33787D01*
G01X12774Y33792D01*
G01X12787Y33792D01*
G01X12798Y33785D01*
G01X12807Y33773D01*
G01X12814Y33759D01*
G01X12816Y33743D01*
G01X12811Y33728D01*
G01X12797Y33698D01*
G01X12775Y33657D01*
G01X12746Y33604D01*
G01X12711Y33543D01*
G01X12671Y33474D01*
G01X12627Y33401D01*
G01X12580Y33323D01*
G01X12532Y33246D01*
G01X12488Y33173D01*
G01X12449Y33107D01*
G01X12416Y33049D01*
G01X12388Y33001D01*
G01X12368Y32964D01*
G01X12356Y32940D01*
G01X12353Y32930D01*
G01X12364Y32928D01*
G01X12434Y32928D01*
G01X12490Y32929D01*
G01X12557Y32931D01*
G01X12633Y32934D01*
G01X12717Y32937D01*
G01X12896Y32945D01*
G01X12979Y32949D01*
G01X13057Y32951D01*
G01X13124Y32953D01*
G01X13181Y32954D01*
G01X13225Y32954D01*
G01X13255Y32953D01*
G01X13267Y32952D01*
G01X13276Y32944D01*
G01X13281Y32934D01*
G01X13282Y32918D01*
G01X13278Y32898D01*
G01X13269Y32871D01*
G01X13255Y32835D01*
G01X13235Y32791D01*
G01X13209Y32737D01*
G01X13176Y32672D01*
G01X13135Y32594D01*
G01X13087Y32503D01*
G01X13030Y32397D01*
G01X12979Y32302D01*
G01X12931Y32212D01*
G01X12888Y32131D01*
G01X12850Y32059D01*
G01X12819Y31999D01*
G01X12795Y31953D01*
G01X12780Y31923D01*
G01X12775Y31911D01*
G01X12781Y31907D01*
G01X12799Y31906D01*
G01X12825Y31908D01*
G01X12856Y31913D01*
G01X12888Y31917D01*
G01X12914Y31920D01*
G01X12932Y31919D01*
G01X12938Y31917D01*
G01X12936Y31907D01*
G01X12929Y31888D01*
G01X12919Y31861D01*
G01X12906Y31831D01*
G01X12886Y31776D01*
G01X12885Y31751D01*
G01X12904Y31753D01*
G01X12945Y31781D01*
G01X12982Y31808D01*
G01X12996Y31808D01*
G01X12988Y31777D01*
G01X12957Y31713D01*
G01X12940Y31679D01*
G01X12931Y31658D01*
G01X12929Y31649D01*
G01X12937Y31655D01*
G01X12956Y31675D01*
G01X12985Y31713D01*
G01X13028Y31767D01*
G01X13084Y31841D01*
G01X13155Y31934D01*
G01X13223Y32022D01*
G01X13286Y32106D01*
G01X13346Y32184D01*
G01X13402Y32258D01*
G01X13454Y32327D01*
G01X13503Y32392D01*
G01X13547Y32451D01*
G01X13589Y32506D01*
G01X13626Y32557D01*
G01X13660Y32602D01*
G01X13690Y32644D01*
G01X13716Y32680D01*
G01X13739Y32712D01*
G01X13759Y32740D01*
G01X13774Y32763D01*
G01X13787Y32782D01*
G01X13796Y32796D01*
G01X13801Y32807D01*
G01X13803Y32812D01*
G01X13801Y32819D01*
G01X13793Y32834D01*
G01X13780Y32856D01*
G01X13761Y32885D01*
G01X13739Y32921D01*
G01X13712Y32963D01*
G01X13681Y33010D01*
G01X13646Y33063D01*
G01X13608Y33121D01*
G01X13566Y33183D01*
G01X13522Y33249D01*
G01X13475Y33319D01*
G01X13425Y33392D01*
G01X13374Y33468D01*
G01X13320Y33546D01*
G01X13210Y33706D01*
G01X13156Y33784D01*
G01X13103Y33859D01*
G01X13053Y33931D01*
G01X13005Y34000D01*
G01X12960Y34065D01*
G01X12916Y34125D01*
G01X12877Y34181D01*
G01X12840Y34232D01*
G01X12808Y34277D01*
G01X12779Y34316D01*
G01X12754Y34350D01*
G01X12734Y34376D01*
G01X12719Y34396D01*
G01X12709Y34407D01*
G37*

%LPD*%
G36*
G01X10808Y33673D02*
G01X10586Y33678D01*
G01X10600Y33162D01*
G01X10614Y32647D01*
G01X10710Y32555D01*
G01X10736Y32530D01*
G01X10775Y32493D01*
G01X10823Y32447D01*
G01X10881Y32392D01*
G01X10945Y32331D01*
G01X11014Y32266D01*
G01X11086Y32198D01*
G01X11158Y32129D01*
G01X11511Y31794D01*
G01X11790Y31726D01*
G01X11899Y31699D01*
G01X11991Y31677D01*
G01X12056Y31663D01*
G01X12085Y31658D01*
G01X12103Y31668D01*
G01X12141Y31697D01*
G01X12193Y31739D01*
G01X12254Y31792D01*
G01X12408Y31925D01*
G01X12408Y32661D01*
G01X12248Y32868D01*
G01X12212Y32916D01*
G01X12169Y32971D01*
G01X12121Y33033D01*
G01X12071Y33099D01*
G01X12019Y33166D01*
G01X11966Y33234D01*
G01X11916Y33300D01*
G01X11868Y33361D01*
G01X11647Y33647D01*
G01X11339Y33658D01*
G01X11272Y33661D01*
G01X11201Y33663D01*
G01X11128Y33665D01*
G01X11056Y33667D01*
G01X10985Y33669D01*
G01X10918Y33671D01*
G01X10859Y33672D01*
G01X10808Y33673D01*
G37*

%LPC*%
G36*
G01X11935Y32575D02*
G01X11877Y32595D01*
G01X11868Y32588D01*
G01X11853Y32569D01*
G01X11832Y32540D01*
G01X11809Y32504D01*
G01X11758Y32439D01*
G01X11706Y32404D01*
G01X11644Y32400D01*
G01X11568Y32422D01*
G01X11534Y32433D01*
G01X11504Y32441D01*
G01X11480Y32443D01*
G01X11468Y32439D01*
G01X11431Y32381D01*
G01X11386Y32292D01*
G01X11351Y32207D01*
G01X11342Y32164D01*
G01X11366Y32149D01*
G01X11409Y32129D01*
G01X11466Y32107D01*
G01X11529Y32083D01*
G01X11594Y32061D01*
G01X11653Y32042D01*
G01X11701Y32029D01*
G01X11732Y32025D01*
G01X11760Y32028D01*
G01X11785Y32037D01*
G01X11805Y32053D01*
G01X11824Y32075D01*
G01X11844Y32100D01*
G01X11870Y32116D01*
G01X11908Y32125D01*
G01X11961Y32131D01*
G01X12066Y32137D01*
G01X12102Y32254D01*
G01X12120Y32320D01*
G01X12127Y32363D01*
G01X12122Y32398D01*
G01X12104Y32437D01*
G01X12066Y32484D01*
G01X12004Y32534D01*
G01X11935Y32575D01*
G37*
G36*
G01X11058Y32976D02*
G01X11033Y32982D01*
G01X11003Y32980D01*
G01X10964Y32971D01*
G01X10931Y32947D01*
G01X10917Y32905D01*
G01X10925Y32853D01*
G01X10954Y32802D01*
G01X10989Y32759D01*
G01X11056Y32800D01*
G01X11100Y32840D01*
G01X11121Y32885D01*
G01X11117Y32929D01*
G01X11086Y32962D01*
G01X11058Y32976D01*
G37*
G36*
G01X11455Y33358D02*
G01X11361Y33368D01*
G01X11343Y33365D01*
G01X11325Y33352D01*
G01X11309Y33330D01*
G01X11293Y33298D01*
G01X11278Y33257D01*
G01X11273Y33224D01*
G01X11277Y33191D01*
G01X11291Y33150D01*
G01X11310Y33112D01*
G01X11332Y33085D01*
G01X11363Y33065D01*
G01X11406Y33048D01*
G01X11455Y33034D01*
G01X11486Y33031D01*
G01X11512Y33041D01*
G01X11541Y33066D01*
G01X11583Y33113D01*
G01X11601Y33158D01*
G01X11597Y33206D01*
G01X11572Y33267D01*
G01X11544Y33316D01*
G01X11510Y33343D01*
G01X11455Y33358D01*
G37*

%LPD*%
G36*
G01X11897Y36200D02*
G01X11880Y36200D01*
G01X11844Y36190D01*
G01X11769Y36171D01*
G01X11668Y36146D01*
G01X11489Y36101D01*
G01X11430Y36086D01*
G01X11373Y36072D01*
G01X11319Y36059D01*
G01X11272Y36047D01*
G01X11232Y36037D01*
G01X11200Y36028D01*
G01X11179Y36023D01*
G01X11154Y36015D01*
G01X11130Y36000D01*
G01X11101Y35977D01*
G01X11067Y35940D01*
G01X11024Y35888D01*
G01X10968Y35816D01*
G01X10898Y35720D01*
G01X10808Y35599D01*
G01X10514Y35194D01*
G01X10451Y34882D01*
G01X10427Y34760D01*
G01X10410Y34656D01*
G01X10401Y34582D01*
G01X10401Y34548D01*
G01X10411Y34533D01*
G01X10433Y34503D01*
G01X10465Y34461D01*
G01X10504Y34408D01*
G01X10550Y34348D01*
G01X10599Y34282D01*
G01X10703Y34146D01*
G01X10753Y34080D01*
G01X10800Y34020D01*
G01X10841Y33966D01*
G01X10875Y33923D01*
G01X10903Y33887D01*
G01X10927Y33856D01*
G01X10943Y33835D01*
G01X10950Y33825D01*
G01X10971Y33830D01*
G01X11026Y33847D01*
G01X11106Y33873D01*
G01X11204Y33907D01*
G01X11455Y33994D01*
G01X11754Y34382D01*
G01X11819Y34467D01*
G01X11875Y34541D01*
G01X11923Y34605D01*
G01X11963Y34661D01*
G01X11998Y34712D01*
G01X12029Y34759D01*
G01X12056Y34805D01*
G01X12082Y34852D01*
G01X12107Y34901D01*
G01X12133Y34955D01*
G01X12161Y35016D01*
G01X12192Y35086D01*
G01X12220Y35151D01*
G01X12247Y35213D01*
G01X12273Y35271D01*
G01X12296Y35325D01*
G01X12316Y35371D01*
G01X12333Y35409D01*
G01X12344Y35437D01*
G01X12352Y35454D01*
G01X12357Y35471D01*
G01X12357Y35490D01*
G01X12351Y35514D01*
G01X12338Y35546D01*
G01X12315Y35587D01*
G01X12283Y35642D01*
G01X12240Y35712D01*
G01X12183Y35801D01*
G01X12144Y35861D01*
G01X12107Y35920D01*
G01X12071Y35976D01*
G01X12038Y36026D01*
G01X12009Y36071D01*
G01X11984Y36108D01*
G01X11966Y36136D01*
G01X11954Y36153D01*
G01X11935Y36176D01*
G01X11916Y36192D01*
G01X11897Y36200D01*
G37*

%LPC*%
G36*
G01X11392Y35582D02*
G01X11344Y35597D01*
G01X11293Y35583D01*
G01X11248Y35540D01*
G01X11227Y35507D01*
G01X11219Y35481D01*
G01X11222Y35454D01*
G01X11235Y35417D01*
G01X11252Y35384D01*
G01X11269Y35364D01*
G01X11293Y35354D01*
G01X11325Y35351D01*
G01X11357Y35354D01*
G01X11383Y35365D01*
G01X11405Y35385D01*
G01X11427Y35416D01*
G01X11448Y35453D01*
G01X11456Y35480D01*
G01X11451Y35505D01*
G01X11433Y35539D01*
G01X11392Y35582D01*
G37*
G36*
G01X11863Y35277D02*
G01X11831Y35290D01*
G01X11786Y35289D01*
G01X11743Y35276D01*
G01X11716Y35252D01*
G01X11707Y35231D01*
G01X11709Y35213D01*
G01X11721Y35193D01*
G01X11743Y35169D01*
G01X11770Y35146D01*
G01X11790Y35136D01*
G01X11810Y35138D01*
G01X11834Y35151D01*
G01X11860Y35177D01*
G01X11875Y35213D01*
G01X11877Y35249D01*
G01X11863Y35277D01*
G37*
G36*
G01X10800Y34911D02*
G01X10789Y34922D01*
G01X10783Y34908D01*
G01X10778Y34870D01*
G01X10777Y34813D01*
G01X10778Y34743D01*
G01X10784Y34643D01*
G01X10793Y34579D01*
G01X10813Y34534D01*
G01X10846Y34491D01*
G01X10884Y34449D01*
G01X10921Y34414D01*
G01X10957Y34386D01*
G01X10993Y34365D01*
G01X11030Y34349D01*
G01X11070Y34339D01*
G01X11115Y34333D01*
G01X11164Y34331D01*
G01X11233Y34333D01*
G01X11283Y34343D01*
G01X11328Y34365D01*
G01X11383Y34405D01*
G01X11422Y34436D01*
G01X11443Y34456D01*
G01X11445Y34464D01*
G01X11428Y34461D01*
G01X11396Y34454D01*
G01X11347Y34449D01*
G01X11288Y34445D01*
G01X11225Y34445D01*
G01X11073Y34447D01*
G01X10986Y34543D01*
G01X10944Y34595D01*
G01X10909Y34650D01*
G01X10879Y34711D01*
G01X10853Y34781D01*
G01X10834Y34836D01*
G01X10816Y34881D01*
G01X10800Y34911D01*
G37*

%LPD*%
G36*
G01X14144Y36360D02*
G01X14140Y36372D01*
G01X14134Y36362D01*
G01X14127Y36334D01*
G01X14119Y36294D01*
G01X14113Y36244D01*
G01X14098Y36117D01*
G01X14050Y36173D01*
G01X14014Y36212D01*
G01X13992Y36225D01*
G01X13982Y36214D01*
G01X13979Y36178D01*
G01X13975Y36140D01*
G01X13961Y36129D01*
G01X13939Y36147D01*
G01X13907Y36193D01*
G01X13867Y36260D01*
G01X13854Y36076D01*
G01X13852Y36047D01*
G01X13850Y36007D01*
G01X13847Y35959D01*
G01X13845Y35902D01*
G01X13842Y35837D01*
G01X13839Y35766D01*
G01X13836Y35690D01*
G01X13834Y35607D01*
G01X13831Y35521D01*
G01X13828Y35432D01*
G01X13825Y35340D01*
G01X13819Y35152D01*
G01X13816Y35057D01*
G01X13814Y34963D01*
G01X13811Y34871D01*
G01X13808Y34781D01*
G01X13806Y34695D01*
G01X13804Y34613D01*
G01X13802Y34536D01*
G01X13801Y34465D01*
G01X13799Y34400D01*
G01X13798Y34343D01*
G01X13798Y34294D01*
G01X13797Y34254D01*
G01X13797Y34224D01*
G01X13798Y34206D01*
G01X13799Y34199D01*
G01X13804Y34202D01*
G01X13820Y34212D01*
G01X13844Y34229D01*
G01X13876Y34253D01*
G01X13916Y34282D01*
G01X13962Y34317D01*
G01X14014Y34357D01*
G01X14072Y34401D01*
G01X14134Y34449D01*
G01X14201Y34500D01*
G01X14271Y34554D01*
G01X14417Y34666D01*
G01X14487Y34720D01*
G01X14554Y34771D01*
G01X14617Y34818D01*
G01X14676Y34862D01*
G01X14728Y34900D01*
G01X14776Y34934D01*
G01X14816Y34962D01*
G01X14849Y34984D01*
G01X14874Y35001D01*
G01X14891Y35009D01*
G01X14898Y35011D01*
G01X14905Y34998D01*
G01X14918Y34965D01*
G01X14939Y34916D01*
G01X14964Y34852D01*
G01X14994Y34776D01*
G01X15027Y34690D01*
G01X15063Y34595D01*
G01X15139Y34393D01*
G01X15176Y34298D01*
G01X15210Y34210D01*
G01X15240Y34132D01*
G01X15266Y34066D01*
G01X15287Y34015D01*
G01X15301Y33980D01*
G01X15309Y33963D01*
G01X15317Y33967D01*
G01X15321Y34006D01*
G01X15321Y34080D01*
G01X15317Y34188D01*
G01X15316Y34228D01*
G01X15314Y34277D01*
G01X15312Y34333D01*
G01X15310Y34397D01*
G01X15308Y34466D01*
G01X15306Y34540D01*
G01X15303Y34618D01*
G01X15301Y34699D01*
G01X15299Y34781D01*
G01X15296Y34865D01*
G01X15292Y35029D01*
G01X15279Y35614D01*
G01X15181Y35710D01*
G01X15134Y35755D01*
G01X15099Y35781D01*
G01X15074Y35791D01*
G01X15057Y35787D01*
G01X15022Y35760D01*
G01X14979Y35728D01*
G01X14929Y35691D01*
G01X14874Y35650D01*
G01X14815Y35607D01*
G01X14753Y35562D01*
G01X14628Y35471D01*
G01X14567Y35427D01*
G01X14509Y35386D01*
G01X14456Y35349D01*
G01X14409Y35316D01*
G01X14339Y35267D01*
G01X14318Y35254D01*
G01X14310Y35249D01*
G01X14305Y35261D01*
G01X14298Y35293D01*
G01X14289Y35346D01*
G01X14277Y35414D01*
G01X14265Y35497D01*
G01X14251Y35593D01*
G01X14238Y35698D01*
G01X14224Y35810D01*
G01X14209Y35923D01*
G01X14195Y36028D01*
G01X14182Y36124D01*
G01X14170Y36207D01*
G01X14159Y36275D01*
G01X14151Y36328D01*
G01X14144Y36360D01*
G37*

%LPD*%
G36*
G01X12362Y36792D02*
G01X12340Y36796D01*
G01X12329Y36795D01*
G01X12327Y36791D01*
G01X12334Y36783D01*
G01X12348Y36771D01*
G01X12371Y36756D01*
G01X12399Y36738D01*
G01X12433Y36716D01*
G01X12540Y36648D01*
G01X12461Y36637D01*
G01X12383Y36627D01*
G01X12507Y36536D01*
G01X12556Y36501D01*
G01X12595Y36470D01*
G01X12622Y36449D01*
G01X12632Y36438D01*
G01X12620Y36436D01*
G01X12589Y36437D01*
G01X12542Y36439D01*
G01X12484Y36444D01*
G01X12423Y36449D01*
G01X12380Y36450D01*
G01X12358Y36446D01*
G01X12357Y36439D01*
G01X12370Y36429D01*
G01X12400Y36410D01*
G01X12444Y36381D01*
G01X12501Y36345D01*
G01X12570Y36303D01*
G01X12647Y36254D01*
G01X12732Y36203D01*
G01X12821Y36147D01*
G01X12911Y36092D01*
G01X12994Y36040D01*
G01X13068Y35992D01*
G01X13133Y35949D01*
G01X13187Y35912D01*
G01X13226Y35883D01*
G01X13251Y35863D01*
G01X13259Y35853D01*
G01X13251Y35845D01*
G01X13236Y35839D01*
G01X13215Y35836D01*
G01X13192Y35836D01*
G01X13127Y35841D01*
G01X13057Y35847D01*
G01X12983Y35852D01*
G01X12907Y35858D01*
G01X12829Y35863D01*
G01X12751Y35869D01*
G01X12675Y35874D01*
G01X12600Y35879D01*
G01X12530Y35883D01*
G01X12465Y35887D01*
G01X12406Y35891D01*
G01X12355Y35893D01*
G01X12312Y35895D01*
G01X12280Y35896D01*
G01X12260Y35897D01*
G01X12251Y35896D01*
G01X12260Y35887D01*
G01X12288Y35863D01*
G01X12333Y35828D01*
G01X12393Y35781D01*
G01X12466Y35725D01*
G01X12550Y35661D01*
G01X12644Y35590D01*
G01X12744Y35516D01*
G01X13245Y35143D01*
G01X13245Y34899D01*
G01X13188Y34910D01*
G01X13141Y34920D01*
G01X13083Y34931D01*
G01X13018Y34943D01*
G01X12948Y34955D01*
G01X12803Y34980D01*
G01X12733Y34992D01*
G01X12669Y35003D01*
G01X12612Y35012D01*
G01X12566Y35018D01*
G01X12534Y35023D01*
G01X12517Y35025D01*
G01X12507Y35020D01*
G01X12515Y35006D01*
G01X12539Y34983D01*
G01X12581Y34951D01*
G01X12683Y34877D01*
G01X12520Y34900D01*
G01X12581Y34850D01*
G01X12643Y34800D01*
G01X12540Y34813D01*
G01X12498Y34817D01*
G01X12470Y34817D01*
G01X12457Y34814D01*
G01X12459Y34806D01*
G01X12473Y34794D01*
G01X12502Y34772D01*
G01X12542Y34741D01*
G01X12592Y34702D01*
G01X12651Y34657D01*
G01X12718Y34607D01*
G01X12790Y34553D01*
G01X12867Y34495D01*
G01X12946Y34436D01*
G01X13026Y34376D01*
G01X13106Y34317D01*
G01X13185Y34259D01*
G01X13259Y34204D01*
G01X13329Y34152D01*
G01X13393Y34106D01*
G01X13448Y34065D01*
G01X13495Y34032D01*
G01X13530Y34007D01*
G01X13552Y33992D01*
G01X13561Y33987D01*
G01X13562Y33993D01*
G01X13563Y34007D01*
G01X13565Y34028D01*
G01X13566Y34058D01*
G01X13568Y34094D01*
G01X13570Y34138D01*
G01X13572Y34186D01*
G01X13574Y34241D01*
G01X13577Y34301D01*
G01X13579Y34365D01*
G01X13581Y34434D01*
G01X13584Y34506D01*
G01X13586Y34582D01*
G01X13589Y34660D01*
G01X13591Y34740D01*
G01X13594Y34822D01*
G01X13599Y34990D01*
G01X13601Y35074D01*
G01X13603Y35159D01*
G01X13605Y35242D01*
G01X13608Y35325D01*
G01X13609Y35406D01*
G01X13611Y35485D01*
G01X13613Y35561D01*
G01X13615Y35634D01*
G01X13616Y35704D01*
G01X13617Y35770D01*
G01X13618Y35831D01*
G01X13619Y35887D01*
G01X13619Y35938D01*
G01X13620Y35983D01*
G01X13622Y36401D01*
G01X13000Y36598D01*
G01X12867Y36641D01*
G01X12752Y36677D01*
G01X12652Y36708D01*
G01X12567Y36735D01*
G01X12496Y36756D01*
G01X12439Y36773D01*
G01X12394Y36785D01*
G01X12362Y36792D01*
G37*

%LPD*%
G54D25*
G01X37900Y2517D02*
G01X37900Y1085D01*
G01X37900Y2517D02*
G01X37286Y2517D01*
G01X37081Y2448D01*
G01X37013Y2380D01*
G01X36945Y2244D01*
G01X36945Y2107D01*
G01X37013Y1971D01*
G01X37081Y1903D01*
G01X37286Y1835D01*
G01X37900Y1835D01*
G01X37422Y1835D02*
G01X36945Y1085D01*
G01X36495Y2517D02*
G01X36495Y1085D01*
G01X36495Y2517D02*
G01X35609Y2517D01*
G01X36495Y1835D02*
G01X35950Y1835D01*
G01X36495Y1085D02*
G01X35609Y1085D01*
G01X35159Y2517D02*
G01X34613Y1085D01*
G01X34068Y2517D02*
G01X34613Y1085D01*
G01X32568Y2244D02*
G01X32431Y2312D01*
G01X32227Y2517D01*
G01X32227Y1085D01*
G01X31709Y1426D02*
G01X31777Y1357D01*
G01X31709Y1289D01*
G01X31640Y1357D01*
G01X31709Y1426D01*
G01X30372Y2312D02*
G01X30440Y2448D01*
G01X30645Y2517D01*
G01X30781Y2517D01*
G01X30986Y2448D01*
G01X31122Y2244D01*
G01X31190Y1903D01*
G01X31190Y1562D01*
G01X31122Y1289D01*
G01X30986Y1153D01*
G01X30781Y1085D01*
G01X30713Y1085D01*
G01X30509Y1153D01*
G01X30372Y1289D01*
G01X30304Y1494D01*
G01X30304Y1562D01*
G01X30372Y1767D01*
G01X30509Y1903D01*
G01X30713Y1971D01*
G01X30781Y1971D01*
G01X30986Y1903D01*
G01X31122Y1767D01*
G01X31190Y1562D01*
G01X36945Y4812D02*
G01X37081Y4948D01*
G01X37286Y5017D01*
G01X37559Y5017D01*
G01X37763Y4948D01*
G01X37900Y4812D01*
G01X37900Y4676D01*
G01X37831Y4539D01*
G01X37763Y4471D01*
G01X37627Y4403D01*
G01X37218Y4267D01*
G01X37081Y4198D01*
G01X37013Y4130D01*
G01X36945Y3994D01*
G01X36945Y3789D01*
G01X37081Y3653D01*
G01X37286Y3585D01*
G01X37559Y3585D01*
G01X37763Y3653D01*
G01X37900Y3789D01*
G01X35950Y5017D02*
G01X36495Y3585D01*
G01X35950Y5017D02*
G01X35404Y3585D01*
G01X36290Y4062D02*
G01X35609Y4062D01*
G01X34477Y5017D02*
G01X34477Y3585D01*
G01X34954Y5017D02*
G01X34000Y5017D01*
G01X33481Y4676D02*
G01X33481Y4744D01*
G01X33413Y4880D01*
G01X33345Y4948D01*
G01X33209Y5017D01*
G01X32936Y5017D01*
G01X32800Y4948D01*
G01X32731Y4880D01*
G01X32663Y4744D01*
G01X32663Y4607D01*
G01X32731Y4471D01*
G01X32868Y4267D01*
G01X33550Y3585D01*
G01X32595Y3585D01*
G01X32145Y5017D02*
G01X32145Y3585D01*
G01X32145Y5017D02*
G01X31190Y3585D01*
G01X31190Y5017D02*
G01X31190Y3585D01*
G01X30740Y5017D02*
G01X30740Y3585D01*
G01X30740Y5017D02*
G01X29854Y5017D01*
G01X30740Y4335D02*
G01X30195Y4335D01*
G01X30740Y3585D02*
G01X29854Y3585D01*
G01X28995Y5017D02*
G01X29131Y4948D01*
G01X29268Y4812D01*
G01X29336Y4676D01*
G01X29404Y4471D01*
G01X29404Y4130D01*
G01X29336Y3926D01*
G01X29268Y3789D01*
G01X29131Y3653D01*
G01X28995Y3585D01*
G01X28722Y3585D01*
G01X28586Y3653D01*
G01X28450Y3789D01*
G01X28381Y3926D01*
G01X28313Y4130D01*
G01X28313Y4471D01*
G01X28381Y4676D01*
G01X28450Y4812D01*
G01X28586Y4948D01*
G01X28722Y5017D01*
G01X28995Y5017D01*
G01X26268Y5017D02*
G01X26813Y3585D01*
G01X26268Y5017D02*
G01X25722Y3585D01*
G01X26609Y4062D02*
G01X25927Y4062D01*
G01X25272Y5017D02*
G01X25272Y3585D01*
G01X25272Y5017D02*
G01X24795Y5017D01*
G01X24590Y4948D01*
G01X24454Y4812D01*
G01X24386Y4676D01*
G01X24318Y4471D01*
G01X24318Y4130D01*
G01X24386Y3926D01*
G01X24454Y3789D01*
G01X24590Y3653D01*
G01X24795Y3585D01*
G01X25272Y3585D01*
G01X23322Y5017D02*
G01X23868Y3585D01*
G01X23322Y5017D02*
G01X22777Y3585D01*
G01X23663Y4062D02*
G01X22981Y4062D01*
G01X22327Y5017D02*
G01X22327Y3585D01*
G01X22327Y5017D02*
G01X21713Y5017D01*
G01X21509Y4948D01*
G01X21440Y4880D01*
G01X21372Y4744D01*
G01X21372Y4539D01*
G01X21440Y4403D01*
G01X21509Y4335D01*
G01X21713Y4267D01*
G01X22327Y4267D01*
G01X20445Y5017D02*
G01X20445Y3585D01*
G01X20922Y5017D02*
G01X19968Y5017D01*
G01X19518Y5017D02*
G01X19518Y3585D01*
G01X19518Y5017D02*
G01X18631Y5017D01*
G01X19518Y4335D02*
G01X18972Y4335D01*
G01X19518Y3585D02*
G01X18631Y3585D01*
G01X18181Y5017D02*
G01X18181Y3585D01*
G01X18181Y5017D02*
G01X17568Y5017D01*
G01X17363Y4948D01*
G01X17295Y4880D01*
G01X17227Y4744D01*
G01X17227Y4607D01*
G01X17295Y4471D01*
G01X17363Y4403D01*
G01X17568Y4335D01*
G01X18181Y4335D01*
G01X17704Y4335D02*
G01X17227Y3585D01*
G54D21*
G01X20118Y34571D02*
G01X20141Y34659D01*
G01X20100Y34858D01*
G01X20036Y34969D01*
G01X19884Y35104D01*
G01X19533Y35198D01*
G01X19334Y35158D01*
G01X19222Y35093D01*
G01X19087Y34941D01*
G01X19040Y34766D01*
G01X19081Y34566D01*
G01X19186Y34256D01*
G01X19829Y33143D01*
G01X18600Y33472D01*
G54D22*
G01X28969Y24380D02*
G01X28969Y23187D01*
G01X28969Y24380D02*
G01X28457Y24380D01*
G01X28287Y24323D01*
G01X28230Y24267D01*
G01X28173Y24153D01*
G01X28173Y23982D01*
G01X28230Y23869D01*
G01X28287Y23812D01*
G01X28457Y23755D01*
G01X28969Y23755D01*
G01X26946Y24096D02*
G01X27003Y24210D01*
G01X27116Y24323D01*
G01X27230Y24380D01*
G01X27457Y24380D01*
G01X27571Y24323D01*
G01X27685Y24210D01*
G01X27741Y24096D01*
G01X27798Y23926D01*
G01X27798Y23642D01*
G01X27741Y23471D01*
G01X27685Y23357D01*
G01X27571Y23244D01*
G01X27457Y23187D01*
G01X27230Y23187D01*
G01X27116Y23244D01*
G01X27003Y23357D01*
G01X26946Y23471D01*
G01X26571Y24380D02*
G01X26571Y23187D01*
G01X26571Y24380D02*
G01X26060Y24380D01*
G01X25889Y24323D01*
G01X25832Y24267D01*
G01X25776Y24153D01*
G01X25776Y24039D01*
G01X25832Y23926D01*
G01X25889Y23869D01*
G01X26060Y23812D01*
G01X26571Y23812D02*
G01X26060Y23812D01*
G01X25889Y23755D01*
G01X25832Y23698D01*
G01X25776Y23585D01*
G01X25776Y23414D01*
G01X25832Y23301D01*
G01X25889Y23244D01*
G01X26060Y23187D01*
G01X26571Y23187D01*
G01X25344Y23869D02*
G01X25401Y23812D01*
G01X25344Y23755D01*
G01X25287Y23812D01*
G01X25344Y23869D01*
G01X25344Y23471D02*
G01X25401Y23414D01*
G01X25344Y23357D01*
G01X25287Y23414D01*
G01X25344Y23471D01*
G01X24037Y24380D02*
G01X24037Y23187D01*
G01X24037Y24380D02*
G01X23298Y24380D01*
G01X24037Y23812D02*
G01X23582Y23812D01*
G01X22923Y24380D02*
G01X22923Y23187D01*
G01X22923Y24380D02*
G01X22412Y24380D01*
G01X22241Y24323D01*
G01X22185Y24267D01*
G01X22128Y24153D01*
G01X22128Y24039D01*
G01X22185Y23926D01*
G01X22241Y23869D01*
G01X22412Y23812D01*
G01X22923Y23812D01*
G01X22526Y23812D02*
G01X22128Y23187D01*
G01X21298Y24380D02*
G01X21753Y23187D01*
G01X21298Y24380D02*
G01X20844Y23187D01*
G01X21582Y23585D02*
G01X21014Y23585D01*
G01X20469Y24380D02*
G01X20469Y23187D01*
G01X20469Y24380D02*
G01X19673Y23187D01*
G01X19673Y24380D02*
G01X19673Y23187D01*
G01X19298Y24380D02*
G01X19298Y23187D01*
G01X18503Y24380D02*
G01X19298Y23585D01*
G01X19014Y23869D02*
G01X18503Y23187D01*
G01X16457Y24210D02*
G01X16571Y24323D01*
G01X16741Y24380D01*
G01X16969Y24380D01*
G01X17139Y24323D01*
G01X17253Y24210D01*
G01X17253Y24096D01*
G01X17196Y23982D01*
G01X17139Y23926D01*
G01X17026Y23869D01*
G01X16685Y23755D01*
G01X16571Y23698D01*
G01X16514Y23642D01*
G01X16457Y23528D01*
G01X16457Y23357D01*
G01X16571Y23244D01*
G01X16741Y23187D01*
G01X16969Y23187D01*
G01X17139Y23244D01*
G01X17253Y23357D01*
G01X16082Y24380D02*
G01X16082Y23187D01*
G01X15287Y24380D02*
G01X16082Y23585D01*
G01X15798Y23869D02*
G01X15287Y23187D01*
G01X14912Y24380D02*
G01X14912Y23187D01*
G01X14537Y24380D02*
G01X14537Y23187D01*
G01X14537Y23187D02*
G01X13855Y23187D01*
G01X13082Y24380D02*
G01X13082Y23187D01*
G01X13480Y24380D02*
G01X12685Y24380D01*
G01X11969Y24380D02*
G01X12082Y24323D01*
G01X12196Y24210D01*
G01X12253Y24096D01*
G01X12310Y23926D01*
G01X12310Y23642D01*
G01X12253Y23471D01*
G01X12196Y23357D01*
G01X12082Y23244D01*
G01X11969Y23187D01*
G01X11741Y23187D01*
G01X11628Y23244D01*
G01X11514Y23357D01*
G01X11457Y23471D01*
G01X11401Y23642D01*
G01X11401Y23926D01*
G01X11457Y24096D01*
G01X11514Y24210D01*
G01X11628Y24323D01*
G01X11741Y24380D01*
G01X11969Y24380D01*
G01X11026Y24380D02*
G01X11026Y23187D01*
G01X11026Y24380D02*
G01X10230Y23187D01*
G01X10230Y24380D02*
G01X10230Y23187D01*
G01X30389Y21496D02*
G01X30446Y21610D01*
G01X30560Y21723D01*
G01X30673Y21780D01*
G01X30901Y21780D01*
G01X31014Y21723D01*
G01X31128Y21610D01*
G01X31185Y21496D01*
G01X31242Y21326D01*
G01X31242Y21042D01*
G01X31185Y20871D01*
G01X31128Y20757D01*
G01X31014Y20644D01*
G01X30901Y20587D01*
G01X30673Y20587D01*
G01X30560Y20644D01*
G01X30446Y20757D01*
G01X30389Y20871D01*
G01X29673Y21780D02*
G01X29787Y21723D01*
G01X29901Y21610D01*
G01X29957Y21496D01*
G01X30014Y21326D01*
G01X30014Y21042D01*
G01X29957Y20871D01*
G01X29901Y20757D01*
G01X29787Y20644D01*
G01X29673Y20587D01*
G01X29446Y20587D01*
G01X29332Y20644D01*
G01X29219Y20757D01*
G01X29162Y20871D01*
G01X29105Y21042D01*
G01X29105Y21326D01*
G01X29162Y21496D01*
G01X29219Y21610D01*
G01X29332Y21723D01*
G01X29446Y21780D01*
G01X29673Y21780D01*
G01X28730Y21780D02*
G01X28730Y20587D01*
G01X28730Y21780D02*
G01X28332Y21780D01*
G01X28162Y21723D01*
G01X28048Y21610D01*
G01X27992Y21496D01*
G01X27935Y21326D01*
G01X27935Y21042D01*
G01X27992Y20871D01*
G01X28048Y20757D01*
G01X28162Y20644D01*
G01X28332Y20587D01*
G01X28730Y20587D01*
G01X27560Y21780D02*
G01X27560Y20587D01*
G01X27560Y21780D02*
G01X26821Y21780D01*
G01X27560Y21212D02*
G01X27105Y21212D01*
G01X27560Y20587D02*
G01X26821Y20587D01*
G01X26389Y21269D02*
G01X26446Y21212D01*
G01X26389Y21155D01*
G01X26332Y21212D01*
G01X26389Y21269D01*
G01X26389Y20871D02*
G01X26446Y20814D01*
G01X26389Y20757D01*
G01X26332Y20814D01*
G01X26389Y20871D01*
G01X24685Y21780D02*
G01X24685Y20587D01*
G01X25082Y21780D02*
G01X24287Y21780D01*
G01X23912Y21780D02*
G01X23628Y20587D01*
G01X23344Y21780D02*
G01X23628Y20587D01*
G01X23344Y21780D02*
G01X23060Y20587D01*
G01X22776Y21780D02*
G01X23060Y20587D01*
G01X22401Y21780D02*
G01X22401Y20587D01*
G01X21230Y21610D02*
G01X21344Y21723D01*
G01X21514Y21780D01*
G01X21742Y21780D01*
G01X21912Y21723D01*
G01X22026Y21610D01*
G01X22026Y21496D01*
G01X21969Y21382D01*
G01X21912Y21326D01*
G01X21798Y21269D01*
G01X21457Y21155D01*
G01X21344Y21098D01*
G01X21287Y21042D01*
G01X21230Y20928D01*
G01X21230Y20757D01*
G01X21344Y20644D01*
G01X21514Y20587D01*
G01X21742Y20587D01*
G01X21912Y20644D01*
G01X22026Y20757D01*
G01X20457Y21780D02*
G01X20457Y20587D01*
G01X20855Y21780D02*
G01X20060Y21780D01*
G01X19685Y21780D02*
G01X19685Y20587D01*
G01X19685Y21780D02*
G01X18946Y21780D01*
G01X19685Y21212D02*
G01X19230Y21212D01*
G01X19685Y20587D02*
G01X18946Y20587D01*
G01X18571Y21780D02*
G01X18571Y20587D01*
G01X18571Y21780D02*
G01X18173Y21780D01*
G01X18003Y21723D01*
G01X17889Y21610D01*
G01X17832Y21496D01*
G01X17776Y21326D01*
G01X17776Y21042D01*
G01X17832Y20871D01*
G01X17889Y20757D01*
G01X18003Y20644D01*
G01X18173Y20587D01*
G01X18571Y20587D01*
G01X16605Y21610D02*
G01X16719Y21723D01*
G01X16889Y21780D01*
G01X17117Y21780D01*
G01X17287Y21723D01*
G01X17401Y21610D01*
G01X17401Y21496D01*
G01X17344Y21382D01*
G01X17287Y21326D01*
G01X17173Y21269D01*
G01X16832Y21155D01*
G01X16719Y21098D01*
G01X16662Y21042D01*
G01X16605Y20928D01*
G01X16605Y20757D01*
G01X16719Y20644D01*
G01X16889Y20587D01*
G01X17117Y20587D01*
G01X17287Y20644D01*
G01X17401Y20757D01*
G01X16230Y21780D02*
G01X15776Y21212D01*
G01X15776Y20587D01*
G01X15321Y21780D02*
G01X15776Y21212D01*
G01X14946Y21780D02*
G01X14946Y20587D01*
G01X14946Y21780D02*
G01X14492Y20587D01*
G01X14037Y21780D02*
G01X14492Y20587D01*
G01X14037Y21780D02*
G01X14037Y20587D01*
G01X13662Y21780D02*
G01X13662Y20587D01*
G01X13662Y21780D02*
G01X13151Y21780D01*
G01X12980Y21723D01*
G01X12923Y21667D01*
G01X12867Y21553D01*
G01X12867Y21382D01*
G01X12923Y21269D01*
G01X12980Y21212D01*
G01X13151Y21155D01*
G01X13662Y21155D01*
G01X12492Y21780D02*
G01X12492Y20587D01*
G01X11696Y21780D02*
G01X11696Y20587D01*
G01X12492Y21212D02*
G01X11696Y21212D01*
G01X10980Y21780D02*
G01X11094Y21723D01*
G01X11207Y21610D01*
G01X11264Y21496D01*
G01X11321Y21326D01*
G01X11321Y21042D01*
G01X11264Y20871D01*
G01X11207Y20757D01*
G01X11094Y20644D01*
G01X10980Y20587D01*
G01X10753Y20587D01*
G01X10639Y20644D01*
G01X10526Y20757D01*
G01X10469Y20871D01*
G01X10412Y21042D01*
G01X10412Y21326D01*
G01X10469Y21496D01*
G01X10526Y21610D01*
G01X10639Y21723D01*
G01X10753Y21780D01*
G01X10980Y21780D01*
G01X10037Y21780D02*
G01X10037Y20587D01*
G01X10037Y21780D02*
G01X9242Y20587D01*
G01X9242Y21780D02*
G01X9242Y20587D01*
G01X8867Y21780D02*
G01X8412Y21212D01*
G01X8412Y20587D01*
G01X7957Y21780D02*
G01X8412Y21212D01*
M00*
M02*
